<svg xmlns="http://www.w3.org/2000/svg" xmlns:xlink="http://www.w3.org/1999/xlink" width="97" height="97" viewBox="0 0 97 97">
  <defs>
    <clipPath id="clip-path">
      <rect id="Rectangle_1" data-name="Rectangle 1" width="97" height="97" fill="#fff"/>
    </clipPath>
  </defs>
  <g id="eco" clip-path="url(#clip-path)">
    <path id="Path_1" data-name="Path 1" d="M10.952,78.226H23.468v17.21H10.952Z" fill="#f0bc5e"/>
    <path id="Path_2" data-name="Path 2" d="M61.016,78.226H73.532v17.21H61.016Z" fill="#f0bc5e"/>
    <path id="Path_3" data-name="Path 3" d="M32.855,78.226H51.629v17.21H32.855Z" fill="#f0bc5e"/>
    <path id="Path_4" data-name="Path 4" d="M80.22,52.119l-2.8,1.4,2.966,5.933H4.1l3.129-6.258h49.09V50.064H26.358L23.229,31.29H11.191L8.062,50.064H5.291L0,60.647V97H84.484V60.647Zm-59.643-17.7.521,3.129H13.321l.521-3.129ZM12.8,40.677H21.62l1.564,9.387H11.233ZM3.129,93.871V62.581H81.355v31.29Z"/>
    <path id="Path_5" data-name="Path 5" d="M6.258,75.1h21.9V65.71H6.258Zm9.387-3.129V68.839h3.129v3.129Zm9.387,0H21.9V68.839h3.129ZM9.387,68.839h3.129v3.129H9.387Z"/>
    <path id="Path_6" data-name="Path 6" d="M68.839,56.323A28.161,28.161,0,1,1,97,28.161,28.194,28.194,0,0,1,68.839,56.323Z" fill="#f0bc5e"/>
    <path id="Path_7" data-name="Path 7" d="M69.218,14.234A12.5,12.5,0,0,1,79.1,19.117l-4.489-.54-.374,3.105,9.114,1.1,2.641-9.86-3.022-.81L81.6,17.243a15.6,15.6,0,0,0-21.13-3.465l1.752,2.592A12.453,12.453,0,0,1,69.218,14.234Z"/>
    <path id="Path_8" data-name="Path 8" d="M56.7,26.75a12.411,12.411,0,0,1,.966-4.735l1.773,4.148,2.877-1.23-3.607-8.442-9.859,2.642.811,3.023,5.085-1.363a15.658,15.658,0,0,0,7.5,19.964l1.4-2.8A12.453,12.453,0,0,1,56.7,26.75Z"/>
    <path id="Path_9" data-name="Path 9" d="M70.872,39.144,73.6,35.513l-2.5-1.878-5.509,7.344L72.8,48.2l2.212-2.212-3.739-3.739A15.657,15.657,0,0,0,84.86,26.752H81.731A12.522,12.522,0,0,1,70.872,39.144Z"/>
    <path id="Path_10" data-name="Path 10" d="M78.226,75.1h-21.9V65.71h21.9ZM59.452,71.968H75.1V68.839H59.452Z"/>
    <path id="Path_11" data-name="Path 11" d="M62.581,67.274H65.71v6.258H62.581Z"/>
    <path id="Path_12" data-name="Path 12" d="M68.839,67.274h3.129v6.258H68.839Z"/>
    <path id="Path_13" data-name="Path 13" d="M53.194,75.1H31.29V65.71h21.9ZM34.419,71.968H50.064V68.839H34.419Z"/>
    <path id="Path_14" data-name="Path 14" d="M37.548,67.274h3.129v6.258H37.548Z"/>
    <path id="Path_15" data-name="Path 15" d="M43.806,67.274h3.129v6.258H43.806Z"/>
    <path id="Path_16" data-name="Path 16" d="M23.468,28.161H20.339c0-3.314,3.082-4.853,5.559-6.091,2.383-1.19,3.828-2.005,3.828-3.292s-1.447-2.1-3.828-3.295c-2.477-1.239-5.559-2.78-5.559-6.1s3.082-4.856,5.559-6.1C28.281,2.1,29.726,1.288,29.726,0h3.129c0,3.314-3.082,4.856-5.559,6.094-2.381,1.19-3.828,2.008-3.828,3.295s1.445,2.1,3.828,3.295c2.477,1.239,5.559,2.78,5.559,6.1s-3.082,4.853-5.559,6.091C24.913,26.06,23.468,26.876,23.468,28.161Z"/>
    <path id="Path_17" data-name="Path 17" d="M12.516,28.161H9.387c0-3.314,3.082-4.853,5.559-6.091,2.383-1.19,3.828-2.005,3.828-3.292s-1.447-2.1-3.828-3.295c-2.477-1.239-5.559-2.78-5.559-6.1s3.082-4.856,5.559-6.1C17.329,2.1,18.774,1.288,18.774,0H21.9c0,3.314-3.082,4.856-5.559,6.094-2.381,1.19-3.828,2.008-3.828,3.295s1.445,2.1,3.828,3.295c2.477,1.239,5.559,2.78,5.559,6.1s-3.082,4.853-5.559,6.091C13.962,26.06,12.516,26.876,12.516,28.161Z"/>
  </g>
</svg>
