<svg xmlns="http://www.w3.org/2000/svg" width="93.969" height="93.969" viewBox="0 0 93.969 93.969">
  <g id="health" transform="translate(-1.516 -1.516)">
    <path id="Path_18" data-name="Path 18" d="M71.234,56.078a24.25,24.25,0,1,1,24.25-24.25A24.278,24.278,0,0,1,71.234,56.078Zm0-40.922A16.672,16.672,0,1,0,87.906,31.828,16.692,16.692,0,0,0,71.234,15.156Z" fill="#f0bc5e"/>
    <path id="Path_19" data-name="Path 19" d="M15.156,25.766h28.8v7.578h-28.8Z" fill="#f0bc5e"/>
    <path id="Path_20" data-name="Path 20" d="M50.016,81.844H62.141v6.062H50.016Z" fill="#f0bc5e"/>
    <path id="Path_21" data-name="Path 21" d="M27.281,80.328A16.672,16.672,0,1,0,10.609,63.656,16.692,16.692,0,0,0,27.281,80.328ZM13.73,65.172h6.126a7.6,7.6,0,0,0,5.909,5.909v6.126A13.658,13.658,0,0,1,13.73,65.172Zm13.551-6.062a4.547,4.547,0,1,1-4.547,4.547A4.552,4.552,0,0,1,27.281,59.109Zm1.516,18.1V71.081a7.6,7.6,0,0,0,5.909-5.909h6.126A13.658,13.658,0,0,1,28.8,77.207ZM40.833,62.141H34.706A7.6,7.6,0,0,0,28.8,56.231V50.1A13.658,13.658,0,0,1,40.833,62.141ZM25.766,50.1v6.126a7.6,7.6,0,0,0-5.909,5.909H13.73A13.658,13.658,0,0,1,25.766,50.1Z"/>
    <path id="Path_22" data-name="Path 22" d="M76.689,59.823a4.5,4.5,0,0,0,.608-2.229V55.279a24.142,24.142,0,0,1-3.031.588v1.726a1.516,1.516,0,0,1-1.516,1.516H69.719A1.516,1.516,0,0,1,68.2,57.594V55.868a24.144,24.144,0,0,1-3.031-.588v2.314a4.5,4.5,0,0,0,.608,2.229,4.537,4.537,0,0,0-2.123,3.833V75.781a7.592,7.592,0,0,0,6.063,7.425v9.247H12.125V84.937l.934.934,3.863-1.987A22.7,22.7,0,0,0,20.3,85.277l1.329,4.145H32.935l1.328-4.144a22.685,22.685,0,0,0,3.378-1.393L41.5,85.872,49.5,77.88l-1.988-3.863A22.757,22.757,0,0,0,48.9,70.639l4.145-1.331V58L48.9,56.675A22.817,22.817,0,0,0,47.51,53.3L49.5,49.434,41.505,41.44l-3.863,1.988a22.89,22.89,0,0,0-3.378-1.393l-1.331-4.145h-11.3L20.3,42.034a22.818,22.818,0,0,0-3.378,1.393l-3.863-1.988-.934.935V4.547H69.719V7.655c.5-.032,1-.077,1.516-.077s1.012.045,1.516.077V1.516H9.094V45.405L5.065,49.434,7.054,53.3a22.887,22.887,0,0,0-1.393,3.378L1.516,58V69.31l4.144,1.328a22.689,22.689,0,0,0,1.393,3.378L5.064,77.879l4.03,4.029V95.484H72.75V83.206a7.591,7.591,0,0,0,6.063-7.425V63.656A4.537,4.537,0,0,0,76.689,59.823Zm-66.6,13.439a19.665,19.665,0,0,1-1.746-4.239l-.221-.784L4.547,67.1V60.216l3.571-1.143.221-.784a19.537,19.537,0,0,1,1.748-4.239l.4-.711L8.771,50.014l4.868-4.868,3.325,1.713.711-.4a19.535,19.535,0,0,1,4.239-1.747l.784-.221,1.141-3.571h6.882l1.143,3.571.784.221a19.535,19.535,0,0,1,4.239,1.747l.711.4,3.325-1.713,4.868,4.868-1.713,3.325.4.711a19.535,19.535,0,0,1,1.747,4.239l.221.784,3.571,1.141V67.1L46.445,68.24l-.221.784a19.661,19.661,0,0,1-1.746,4.239l-.4.709L45.792,77.3l-4.868,4.867L37.6,80.454l-.709.4A19.663,19.663,0,0,1,32.648,82.6l-.784.221-1.141,3.571H23.841L22.7,82.82l-.784-.221a19.661,19.661,0,0,1-4.239-1.746l-.709-.4-3.327,1.711L8.771,77.3l1.713-3.327Zm65.7,2.519a4.547,4.547,0,1,1-9.094,0V63.656A1.516,1.516,0,0,1,68.2,62.141h6.063a1.516,1.516,0,0,1,1.516,1.516Z"/>
    <path id="Path_23" data-name="Path 23" d="M71.234,13.641A18.187,18.187,0,1,0,89.422,31.828,18.208,18.208,0,0,0,71.234,13.641Zm0,33.344A15.156,15.156,0,1,1,86.391,31.828,15.173,15.173,0,0,1,71.234,46.984Z"/>
    <path id="Path_24" data-name="Path 24" d="M66.688,35.748l-3.475-3.475-2.143,2.143,5.618,5.618L81.4,25.322l-2.143-2.143Z"/>
    <path id="Path_25" data-name="Path 25" d="M45.469,7.578H15.156V22.734H45.469ZM42.438,19.7H18.188V10.609h24.25Z"/>
    <path id="Path_26" data-name="Path 26" d="M15.156,25.766h3.031V28.8H15.156Z"/>
    <path id="Path_27" data-name="Path 27" d="M21.219,25.766H43.953V28.8H21.219Z"/>
    <path id="Path_28" data-name="Path 28" d="M15.156,31.828h28.8v3.031h-28.8Z"/>
    <path id="Path_29" data-name="Path 29" d="M50.016,86.391H62.141v3.031H50.016Z"/>
    <path id="Path_30" data-name="Path 30" d="M50.016,80.328H62.141v3.031H50.016Z"/>
  </g>
</svg>
