<svg xmlns="http://www.w3.org/2000/svg" width="103.656" height="103.656" viewBox="0 0 103.656 103.656">
  <g id="hear" transform="translate(-1 -1)">
    <path id="Path_31" data-name="Path 31" d="M42.551,27.233a3.909,3.909,0,0,1-1.786-3.282V23.3a3.908,3.908,0,0,1,5.957-3.329l8.64,5.317-.023-1.08-.02-.227a24.829,24.829,0,0,0-.8-3.421l-.589-1.913A24.87,24.87,0,0,0,30.042,1,21.219,21.219,0,0,0,10.551,13.813,20.6,20.6,0,0,0,9.01,22.592l.005.186a21.173,21.173,0,0,0,3.227,11,21.3,21.3,0,0,0,3.827,4.417A17.938,17.938,0,0,1,22.2,51.7v10.11a12.754,12.754,0,0,0,24.5,4.974l4.5-11.546a65.227,65.227,0,0,0,3.787-14.425c.242-1.69.4-3.424.512-5.2Z" transform="translate(5.375)" fill="#f0bc5e"/>
    <path id="Path_32" data-name="Path 32" d="M29.28,49.382l-3.115-1.215,4.148-10.648a55.116,55.116,0,0,0,3.2-12.2q.238-1.675.376-3.372l3.332.268q-.143,1.8-.4,3.578a58.45,58.45,0,0,1-3.4,12.942Z" transform="translate(16.908 14.072)"/>
    <path id="Path_33" data-name="Path 33" d="M25.1,42.532a6.073,6.073,0,0,1-1.453-.176l.8-3.245a2.746,2.746,0,0,0,2.18-.391l1.876,2.769a6.052,6.052,0,0,1-3.4,1.043Z" transform="translate(15.219 25.343)"/>
    <path id="Path_34" data-name="Path 34" d="M83.727,29.257a11.7,11.7,0,1,0-15.37-.851h-.689a8.386,8.386,0,0,1-4.382-1.239L44.913,15.859a5.581,5.581,0,0,0-1.068-.5A18.257,18.257,0,0,0,27.355,5,14.535,14.535,0,0,0,14,13.777a14.027,14.027,0,0,0-1,5.95l.005.187a14.532,14.532,0,0,0,2.152,7.535,14.562,14.562,0,0,0,2.621,3.026A24.678,24.678,0,0,1,26.19,48.5l3.344-.069A28.033,28.033,0,0,0,19.987,27.96a11.3,11.3,0,0,1-2.02-2.331,11.213,11.213,0,0,1-1.613-5.8l-.005-.187a10.766,10.766,0,0,1,.724-4.536A11.193,11.193,0,0,1,27.355,8.344a14.931,14.931,0,0,1,12.708,7.05,5.572,5.572,0,0,0-3.656,5.218v.652a5.569,5.569,0,0,0,2.548,4.688L61.01,40.221a8.324,8.324,0,0,1,3.819,7.017V95.281a6.66,6.66,0,0,0,11.7,4.377,6.66,6.66,0,0,0,11.7-4.377V68.531a8.369,8.369,0,0,0,8.359-8.359V46.8a18.42,18.42,0,0,0-12.867-17.54Zm-15.555-9.21a8.359,8.359,0,1,1,8.359,8.359,8.369,8.369,0,0,1-8.359-8.359ZM93.25,60.172a5.022,5.022,0,0,1-5.016,5.016V43.453H84.891V95.281a3.344,3.344,0,0,1-6.687,0V61.844H74.859V95.281a3.344,3.344,0,0,1-6.687,0V47.238a11.657,11.657,0,0,0-5.345-9.826L40.773,23.145a2.236,2.236,0,0,1-1.023-1.881v-.652a2.238,2.238,0,0,1,3.409-1.906L61.535,30.015a11.691,11.691,0,0,0,6.132,1.735H78.2A15.064,15.064,0,0,1,93.25,46.8Z" transform="translate(8.062 2.688)"/>
    <path id="Path_35" data-name="Path 35" d="M1,22H11.031v3.344H1Z" transform="translate(0 14.109)"/>
    <path id="Path_36" data-name="Path 36" d="M0,0H10.031V3.344H0Z" transform="matrix(0.866, -0.5, 0.5, 0.866, 3.527, 48.867)"/>
    <path id="Path_37" data-name="Path 37" d="M0,0H3.344V10.031H0Z" transform="matrix(0.5, -0.866, 0.866, 0.5, 3.523, 26.689)"/>
  </g>
</svg>
