<svg xmlns="http://www.w3.org/2000/svg" width="106.299" height="106.242" viewBox="0 0 106.299 106.242">
  <g id="lepak" transform="translate(-0.998 -0.76)">
    <path id="Path_38" data-name="Path 38" d="M93.672,41.578a6.812,6.812,0,1,1,6.812-6.812A6.819,6.819,0,0,1,93.672,41.578Z" fill="#f0bc5e"/>
    <path id="Path_39" data-name="Path 39" d="M93.551,21.141a13.657,13.657,0,0,0-9.72,4.026l-62.4,62.4L40.875,107l62.4-62.4a13.746,13.746,0,0,0-9.72-23.466ZM33.064,94.375,81.75,45.689,89.561,53.5l-2.7,2.7-5.608-5.608L78.843,53l5.608,5.608-2.7,2.7-3.905-3.905-2.408,2.408,3.905,3.905-2.7,2.7-5.608-5.608L68.624,63.22l5.608,5.608-2.7,2.7-3.905-3.905-2.408,2.408,3.905,3.905-2.7,2.7L60.813,71.03l-2.408,2.408,5.608,5.608-2.7,2.7-3.905-3.905L55,80.251,58.9,84.156l-2.7,2.7-5.608-5.608-2.408,2.408,5.608,5.608-2.7,2.7-3.905-3.905L44.78,90.47l3.905,3.905-2.7,2.7-5.608-5.608-2.408,2.408,5.608,5.608-2.7,2.7Zm67.8-52.177-8.893,8.894L81.75,40.873,30.656,91.967l-4.4-4.4L86.24,27.575A10.34,10.34,0,1,1,100.862,42.2Z"/>
    <path id="Path_40" data-name="Path 40" d="M36.97,66.626l25.945-38,1.669-8.351,6.947-6.945a5.814,5.814,0,0,0,0-8.223l-2.7-2.7a5.958,5.958,0,0,0-8.224,0L53.662,9.352,45.31,11.024,7.557,36.765,1,43.281,30.656,72.939ZM61.168,20l-.6,3-9.728-9.6,3.1-.62ZM63.016,4.814a2.464,2.464,0,0,1,3.406,0l2.7,2.7a2.407,2.407,0,0,1,0,3.406l-6.107,6.107-6.107-6.107ZM46.659,14.226l.148-.029,12.961,12.8-.058.288L35.517,62.765,11.172,38.421ZM8.516,40.58,33.357,65.422l-2.7,2.7L5.814,43.281Z"/>
    <path id="Path_41" data-name="Path 41" d="M34.063,57.611,16.326,39.875l7.518-7.518L41.58,50.094Z" fill="#f0bc5e"/>
    <path id="Path_42" data-name="Path 42" d="M40.875,43.281a5.776,5.776,0,0,1-4.113-1.7l-4.4-4.4a5.814,5.814,0,0,1,0-8.223l7.81-7.811a5.959,5.959,0,0,1,8.224,0l4.4,4.4a5.814,5.814,0,0,1,0,8.223l-7.811,7.81A5.769,5.769,0,0,1,40.875,43.281Z" fill="#f0bc5e"/>
  </g>
</svg>
