<svg xmlns="http://www.w3.org/2000/svg" width="90.792" height="93.969" viewBox="0 0 90.792 93.969">
  <g id="nature" transform="translate(-2.115 -0.66)">
    <path id="Path_43" data-name="Path 43" d="M86.843,37.562c-5.4,0-21.142,1.2-28.883,3.859.047-.772.077-1.549.077-2.342,0-15.094-3.017-36.387-3.047-36.6L54.729.66l-1.736.6A95.361,95.361,0,0,0,30.615,13.213C15.824,23.925,8.005,37.063,8.005,51.207c0,9.265,4.454,21.253,4.644,21.758l.155.414c-3.9,6.988-7.611,13.756-10.689,19.57L4.8,94.368C8,88.32,11.889,81.234,15.962,73.943A61.835,61.835,0,0,0,29.229,72.51V83.426a119.8,119.8,0,0,0-8.746,9.262l2.33,1.941A112.235,112.235,0,0,1,30.7,86.234C33,87.329,41.087,90.626,55,90.626c32.972,0,33.354-51.032,33.354-51.548V37.562ZM22.981,61.48l18.824-5.792-.891-2.9L25.167,57.636c2.6-4.568,5.123-8.966,7.433-12.982l13.742-4.122-.87-2.9-10.664,3.2c5.443-9.429,9.276-15.972,9.374-16.141L41.567,23.15c-.1.174-4.224,7.209-9.993,17.212l-2.38-10.71-2.961.658,3.1,13.945c-2.145,3.731-4.454,7.761-6.832,11.935L20.111,41.862l-2.991.5,3,18.013c-1.778,3.137-3.572,6.316-5.346,9.479-1.254-3.783-3.739-12.091-3.739-18.645C11.037,23.059,44.2,8.024,52.244,4.79,52.971,10.307,55,26.8,55,39.078c0,18.771-14.577,31.1-37.328,31.8,1.762-3.138,3.542-6.293,5.3-9.4ZM42.187,71.87l-.79-3.951a33.5,33.5,0,0,0,9.711-8.137l.717,4.3c-3.1,2.427-6.366,5.053-9.638,7.79Zm-9.924-.15a44.857,44.857,0,0,0,6.331-2.351l.948,4.741c-2.477,2.118-4.927,4.282-7.279,6.454ZM55,87.594c-11.529,0-18.888-2.4-21.921-3.634,2.512-2.356,5.167-4.72,7.864-7.036L57.64,81.476l.8-2.926-14.682-4c3.408-2.858,6.823-5.605,10.056-8.138L68.5,67.877l.3-3.017L57.288,63.709c8.571-6.586,15.11-11.153,15.26-11.257l-1.733-2.489c-.628.437-7.491,5.229-16.272,12l-.96-5.76a31.779,31.779,0,0,0,4.024-11.4c5.61-2.524,20.719-3.977,27.677-4.184C84.94,48.9,81.887,87.594,55,87.594Z" transform="translate(0 0)"/>
    <path id="Path_44" data-name="Path 44" d="M68.334,12.8a3.154,3.154,0,0,1-1.076.2A3.067,3.067,0,0,1,64.6,11.431,3.033,3.033,0,0,1,65.363,7.6,2.886,2.886,0,0,1,66,7.21,14.2,14.2,0,0,0,59.653,4.2c0,.024,0,.05-.006.074a3.025,3.025,0,0,1-6,0c0-.024,0-.05-.006-.074A14.206,14.206,0,0,0,47.291,7.21a2.886,2.886,0,0,1,.637.385,3.033,3.033,0,0,1,.758,3.836,3.067,3.067,0,0,1-2.653,1.562,3.154,3.154,0,0,1-1.076-.2A3.056,3.056,0,0,1,43.8,11.96a10.7,10.7,0,0,0,0,8.129,3.056,3.056,0,0,1,1.154-.835,3.154,3.154,0,0,1,1.076-.2,3.067,3.067,0,0,1,2.653,1.562,3.033,3.033,0,0,1-.758,3.836,2.886,2.886,0,0,1-.637.385,14.2,14.2,0,0,0,6.346,3.009c0-.024,0-.05.006-.074a3.025,3.025,0,0,1,6,0c0,.024,0,.05.006.074A14.206,14.206,0,0,0,66,24.84a2.886,2.886,0,0,1-.637-.385,3.033,3.033,0,0,1-.758-3.836,3.067,3.067,0,0,1,2.653-1.562,3.154,3.154,0,0,1,1.076.2,3.056,3.056,0,0,1,1.154.835,10.7,10.7,0,0,0,0-8.129A3.056,3.056,0,0,1,68.334,12.8Z" transform="translate(21.101 1.828)" fill="#f0bc5e"/>
    <path id="Path_45" data-name="Path 45" d="M69.37,19.481a4.6,4.6,0,0,0-4.576.849l-4.6-2.653,4.617-2.664a4.531,4.531,0,0,0,2.962,1.148,4.684,4.684,0,0,0,1.622-.3,4.549,4.549,0,0,0-1.622-8.8,4.552,4.552,0,0,0-4.548,4.548,4.569,4.569,0,0,0,.1.758l-4.645,2.68V9.827a4.532,4.532,0,0,0,2.991-3.716,4.67,4.67,0,0,0,.041-.562,4.548,4.548,0,0,0-9.1,0,5.013,5.013,0,0,0,.039.562,4.531,4.531,0,0,0,2.993,3.716v5.225L51,12.371a4.415,4.415,0,0,0,.1-.758,4.548,4.548,0,1,0-9.1,0,4.6,4.6,0,0,0,2.952,4.26,4.668,4.668,0,0,0,1.6.288,4.526,4.526,0,0,0,2.959-1.149l4.62,2.665L49.54,20.324a4.528,4.528,0,0,0-4.614-.832,4.549,4.549,0,0,0,1.622,8.8A4.552,4.552,0,0,0,51.1,23.742a4.569,4.569,0,0,0-.1-.758l4.645-2.68v5.225a4.532,4.532,0,0,0-2.991,3.716,4.67,4.67,0,0,0-.041.562,4.548,4.548,0,0,0,9.1,0,5.013,5.013,0,0,0-.039-.562,4.531,4.531,0,0,0-2.993-3.716V20.3l4.645,2.68a4.414,4.414,0,0,0-.1.758,4.548,4.548,0,1,0,9.1,0,4.6,4.6,0,0,0-2.952-4.26Zm-2.527-9.063a1.46,1.46,0,0,1,.931-.321,1.518,1.518,0,0,1,1.516,1.516,1.517,1.517,0,0,1-2.843.737,1.517,1.517,0,0,1,.4-1.932ZM57.161,4.032a1.518,1.518,0,0,1,1.516,1.516,1.334,1.334,0,0,1-.02.2,1.509,1.509,0,0,1-2.994,0,1.586,1.586,0,0,1-.018-.2A1.518,1.518,0,0,1,57.161,4.032Zm-9.276,8.3a1.59,1.59,0,0,1-1.866.7,1.543,1.543,0,0,1-.987-1.422A1.518,1.518,0,0,1,46.548,10.1a1.474,1.474,0,0,1,.945.332,1.517,1.517,0,0,1,.572,1.184A1.488,1.488,0,0,1,47.886,12.33Zm-.406,12.606a1.46,1.46,0,0,1-.931.321,1.518,1.518,0,0,1-1.516-1.516,1.533,1.533,0,0,1,.96-1.411,1.629,1.629,0,0,1,.556-.1A1.551,1.551,0,0,1,47.875,23a1.519,1.519,0,0,1-.4,1.933Zm9.682,6.386a1.518,1.518,0,0,1-1.516-1.516,1.335,1.335,0,0,1,.02-.2,1.509,1.509,0,0,1,2.994,0,1.586,1.586,0,0,1,.018.2A1.518,1.518,0,0,1,57.161,31.322Zm10.613-6.064a1.474,1.474,0,0,1-.945-.332,1.517,1.517,0,0,1-.572-1.184,1.5,1.5,0,0,1,.177-.717,1.561,1.561,0,0,1,1.339-.8,1.616,1.616,0,0,1,.531.094,1.544,1.544,0,0,1,.985,1.422A1.518,1.518,0,0,1,67.774,25.258Z" transform="translate(20.585 0.175)"/>
    <g id="Group_1" data-name="Group 1" transform="translate(14.07 16.337)">
      <path id="Path_46" data-name="Path 46" d="M31.548,20.1A4.548,4.548,0,1,0,27,15.548,4.554,4.554,0,0,0,31.548,20.1Z" transform="translate(-1.226 -11)" fill="#f0bc5e"/>
      <path id="Path_47" data-name="Path 47" d="M34.548,22A4.548,4.548,0,1,0,39.1,26.548,4.554,4.554,0,0,0,34.548,22Z" transform="translate(0.322 -5.323)" fill="#f0bc5e"/>
      <path id="Path_48" data-name="Path 48" d="M31.548,32A4.548,4.548,0,1,0,36.1,36.548,4.554,4.554,0,0,0,31.548,32Z" transform="translate(-1.226 -0.162)" fill="#f0bc5e"/>
      <path id="Path_49" data-name="Path 49" d="M20.548,15A4.548,4.548,0,1,0,25.1,19.548,4.554,4.554,0,0,0,20.548,15Z" transform="translate(-6.903 -8.936)" fill="#f0bc5e"/>
      <path id="Path_50" data-name="Path 50" d="M14.548,23A4.548,4.548,0,1,0,19.1,27.548,4.554,4.554,0,0,0,14.548,23Z" transform="translate(-10 -4.807)" fill="#f0bc5e"/>
      <path id="Path_51" data-name="Path 51" d="M50.548,30A4.548,4.548,0,1,0,55.1,34.548,4.554,4.554,0,0,0,50.548,30Z" transform="translate(8.58 -1.194)" fill="#f0bc5e"/>
      <path id="Path_52" data-name="Path 52" d="M49.548,42A4.548,4.548,0,1,0,54.1,46.548,4.554,4.554,0,0,0,49.548,42Z" transform="translate(8.064 4.999)" fill="#f0bc5e"/>
      <path id="Path_53" data-name="Path 53" d="M42.548,50A4.548,4.548,0,1,0,47.1,54.548,4.554,4.554,0,0,0,42.548,50Z" transform="translate(4.451 9.128)" fill="#f0bc5e"/>
    </g>
  </g>
</svg>
