<svg xmlns="http://www.w3.org/2000/svg" xmlns:xlink="http://www.w3.org/1999/xlink" width="103" height="103" viewBox="0 0 103 103">
  <defs>
    <clipPath id="clip-path">
      <rect id="Rectangle_6" data-name="Rectangle 6" width="103" height="103" fill="#fff"/>
    </clipPath>
  </defs>
  <g id="quality" clip-path="url(#clip-path)">
    <path id="Path_59" data-name="Path 59" d="M87.719,34.906c-1.483,0-2.9-1.5-4.277-2.959A16.05,16.05,0,0,0,81.4,30a16.175,16.175,0,0,0-2.04,1.942c-1.734,1.836-3.53,3.736-5.441,2.631-1.948-1.128-1.181-3.681-.44-6.152a18.155,18.155,0,0,0,.65-2.584,17.883,17.883,0,0,0-2.47-.689c-2.56-.6-5.21-1.213-5.21-3.521S69.1,18.7,71.665,18.11a18.612,18.612,0,0,0,2.467-.69,17.893,17.893,0,0,0-.65-2.586c-.741-2.471-1.506-5.024.44-6.15,1.9-1.106,3.7.793,5.442,2.633a16.148,16.148,0,0,0,2.038,1.94,16.076,16.076,0,0,0,2.04-1.944c1.734-1.836,3.525-3.74,5.441-2.631,1.948,1.128,1.181,3.681.44,6.152a18.153,18.153,0,0,0-.65,2.584,17.921,17.921,0,0,0,2.468.69c2.562.6,5.212,1.214,5.212,3.524s-2.65,2.926-5.212,3.521a18.639,18.639,0,0,0-2.468.689,17.9,17.9,0,0,0,.65,2.586c.741,2.471,1.506,5.024-.44,6.15A2.3,2.3,0,0,1,87.719,34.906ZM81.573,13.347Z" fill="#f0bc5e"/>
    <path id="Path_60" data-name="Path 60" d="M16.613,33.226h9.968V51.5H16.613Z" fill="#f0bc5e"/>
    <path id="Path_61" data-name="Path 61" d="M29.9,39.871h9.968V51.5H29.9Z" fill="#f0bc5e"/>
    <path id="Path_62" data-name="Path 62" d="M43.194,26.581h9.968V51.5H43.194Z" fill="#f0bc5e"/>
    <path id="Path_63" data-name="Path 63" d="M101.705,66.417a4.963,4.963,0,0,0-3.689-8.306H88.048c-.015,0-.028,0-.043,0,.011-.219.043-.439.043-.661V46.481a8.316,8.316,0,0,0-8.307-8.306H78.081v10.21a11.242,11.242,0,0,1-8.306,10.943V28.242H66.452v31.53H59.806V56.449H39.871v29.9H59.806V83.03h6.645V98.016a1.663,1.663,0,0,1-1.661,1.661H4.984a1.663,1.663,0,0,1-1.661-1.661V14.952A1.663,1.663,0,0,1,4.984,13.29H19.935v3.323H6.645V96.355H63.129V89.924H59.806v3.109H9.968v-73.1H20.241a4.977,4.977,0,0,0,4.678,3.323H44.855a4.977,4.977,0,0,0,4.678-3.323H59.806V53.161h3.323V16.613H49.839V13.29H64.79a1.663,1.663,0,0,1,1.661,1.661h3.323A4.99,4.99,0,0,0,64.79,9.968H49.533a4.977,4.977,0,0,0-4.678-3.323H43.026a8.306,8.306,0,0,0-16.277,0H24.919a4.977,4.977,0,0,0-4.678,3.323H4.984A4.99,4.99,0,0,0,0,14.952V98.016A4.99,4.99,0,0,0,4.984,103H64.79a4.99,4.99,0,0,0,4.984-4.984V84.058l5.459,2.73a11.7,11.7,0,0,0,5.2,1.226H98.016a4.963,4.963,0,0,0,3.689-8.306,4.91,4.91,0,0,0,0-6.645,4.91,4.91,0,0,0,0-6.645ZM23.258,11.629a1.663,1.663,0,0,1,1.661-1.661H29.9V8.306a4.984,4.984,0,0,1,9.968,0V9.968h4.984a1.663,1.663,0,0,1,1.661,1.661v6.645a1.663,1.663,0,0,1-1.661,1.661H24.919a1.663,1.663,0,0,1-1.661-1.661ZM99.677,76.384a1.663,1.663,0,0,1-1.661,1.661H88.048a1.661,1.661,0,0,1,0-3.323h9.968A1.665,1.665,0,0,1,99.677,76.384ZM88.048,71.4a1.661,1.661,0,1,1,0-3.323h9.968a1.661,1.661,0,1,1,0,3.323Zm0-9.968h9.968a1.661,1.661,0,1,1,0,3.323H88.048a1.645,1.645,0,0,1-1.615-1.43,11.726,11.726,0,0,0,.806-1.663A1.549,1.549,0,0,1,88.048,61.433ZM56.484,83.03H53.161V66.452H49.839V83.03H43.194V59.772h6.645v3.357h3.323V59.772h3.323Zm20.235.786L68.5,79.707h-8.7V63.094h6.886a14.8,14.8,0,0,0,6.582-1.554A14.628,14.628,0,0,0,81.4,48.385v-6.6a4.993,4.993,0,0,1,3.323,4.7V57.452a8.345,8.345,0,0,1-4.034,7.122l-3.467,2.08,1.71,2.849,3.465-2.08a11.4,11.4,0,0,0,1.719-1.3c.077.1.155.2.239.289a4.909,4.909,0,0,0,0,6.645,4.909,4.909,0,0,0,0,6.645,4.831,4.831,0,0,0-.99,4.984H80.431A8.365,8.365,0,0,1,76.719,83.816Zm21.3.875H88.048a1.661,1.661,0,0,1,0-3.323h9.968a1.661,1.661,0,0,1,0,3.323Z"/>
    <path id="Path_64" data-name="Path 64" d="M13.29,86.387h3.323V89.71H13.29Z"/>
    <path id="Path_65" data-name="Path 65" d="M19.935,86.387H36.549V89.71H19.935Z"/>
    <path id="Path_66" data-name="Path 66" d="M13.29,79.742h3.323v3.323H13.29Z"/>
    <path id="Path_67" data-name="Path 67" d="M19.935,79.742H36.549v3.323H19.935Z"/>
    <path id="Path_68" data-name="Path 68" d="M13.29,73.1h3.323v3.323H13.29Z"/>
    <path id="Path_69" data-name="Path 69" d="M19.935,73.1H36.549v3.323H19.935Z"/>
    <path id="Path_70" data-name="Path 70" d="M13.29,66.452h3.323v3.323H13.29Z"/>
    <path id="Path_71" data-name="Path 71" d="M19.935,66.452H36.549v3.323H19.935Z"/>
    <path id="Path_72" data-name="Path 72" d="M13.29,59.806h3.323v3.323H13.29Z"/>
    <path id="Path_73" data-name="Path 73" d="M19.935,59.806H36.549v3.323H19.935Z"/>
    <path id="Path_74" data-name="Path 74" d="M13.29,49.839H56.484v3.323H13.29Z"/>
    <path id="Path_75" data-name="Path 75" d="M26.581,13.29H29.9v3.323H26.581Z"/>
    <path id="Path_76" data-name="Path 76" d="M39.871,13.29h3.323v3.323H39.871Z"/>
  </g>
</svg>
