<svg xmlns="http://www.w3.org/2000/svg" width="103.656" height="103.656" viewBox="0 0 103.656 103.656">
  <g id="resist" transform="translate(0)">
    <path id="Path_81" data-name="Path 81" d="M41.8,0V53.5H39.618L29.587,60.188H0v26.75H29.773l8.359,3.344H41.8v13.375H53.5V90.281H66.875a4.994,4.994,0,0,0,3.712-8.359,4.94,4.94,0,0,0,0-6.687,4.94,4.94,0,0,0,0-6.687,4.994,4.994,0,0,0-3.712-8.359H64.9a4.946,4.946,0,0,0,.308-1.672A5.022,5.022,0,0,0,60.188,53.5H53.5V43.469h50.156V0Zm58.516,38.624-14.45-9.91-1.891,2.758,12.617,8.653H45.141V4.845l15.9,10.9,1.891-2.757L48.864,3.344h51.449ZM50.156,100.313H45.141V65.9L47.5,63.531h1.287a4.861,4.861,0,0,0,1,5.016,4.94,4.94,0,0,0,0,6.688,4.94,4.94,0,0,0,0,6.688,4.949,4.949,0,0,0,.368,7.056ZM68.547,71.891a1.675,1.675,0,0,1-1.672,1.672H53.5a1.672,1.672,0,0,1,0-3.344H66.875A1.675,1.675,0,0,1,68.547,71.891Zm0,6.688a1.675,1.675,0,0,1-1.672,1.672H53.5a1.672,1.672,0,0,1,0-3.344H66.875A1.675,1.675,0,0,1,68.547,78.578Zm-1.672,8.359H53.5a1.672,1.672,0,0,1,0-3.344H66.875a1.672,1.672,0,0,1,0,3.344ZM68.547,65.2a1.675,1.675,0,0,1-1.672,1.672H53.5a1.672,1.672,0,0,1,0-3.344H66.875A1.675,1.675,0,0,1,68.547,65.2ZM61.86,58.516a1.675,1.675,0,0,1-1.672,1.672H46.12L33.927,72.38l2.364,2.364L41.8,69.239v17.7H38.774l-8.359-3.344H3.344V63.531H30.6l10.031-6.687H60.188a1.675,1.675,0,0,1,1.672,1.672ZM50.156,53.5H45.141V43.469h5.016Zm0,0"/>
    <path id="Path_82" data-name="Path 82" d="M295.047,62.094a15.047,15.047,0,1,1,15.047-15.047A15.063,15.063,0,0,1,295.047,62.094Zm0,0" transform="translate(-221.484 -25.313)" fill="#f0bc5e"/>
    <path id="Path_83" data-name="Path 83" d="M333.016,64.719a1.675,1.675,0,0,1-1.672-1.672H328a5.009,5.009,0,0,0,3.344,4.708v3.652h3.344V67.755a5,5,0,0,0-1.672-9.723,1.672,1.672,0,1,1,1.672-1.672h3.344a5.009,5.009,0,0,0-3.344-4.708V48h-3.344v3.652a5,5,0,0,0,1.672,9.723,1.672,1.672,0,0,1,0,3.344Zm0,0" transform="translate(-259.453 -37.969)"/>
    <path id="Path_84" data-name="Path 84" d="M53.016,13.375h3.344V8.359h5.016V5.016H56.359V0H53.016V5.016H48V8.359h5.016Zm0,0" transform="translate(-37.969)"/>
    <path id="Path_85" data-name="Path 85" d="M72,88h3.344v3.344H72Zm0,0" transform="translate(-56.953 -69.609)"/>
    <path id="Path_86" data-name="Path 86" d="M72,136h3.344v3.344H72Zm0,0" transform="translate(-56.953 -107.578)"/>
    <path id="Path_87" data-name="Path 87" d="M72,184h3.344v3.344H72Zm0,0" transform="translate(-56.953 -145.547)"/>
    <path id="Path_88" data-name="Path 88" d="M72,232h3.344v3.344H72Zm0,0" transform="translate(-56.953 -183.516)"/>
    <path id="Path_89" data-name="Path 89" d="M392.359,432h-3.344v5.016H384v3.344h5.016v5.016h3.344v-5.016h5.016v-3.344h-5.016Zm0,0" transform="translate(-303.75 -341.719)"/>
    <path id="Path_90" data-name="Path 90" d="M408,392h3.344v3.344H408Zm0,0" transform="translate(-322.734 -310.078)"/>
    <path id="Path_91" data-name="Path 91" d="M408,344h3.344v3.344H408Zm0,0" transform="translate(-322.734 -272.109)"/>
    <path id="Path_92" data-name="Path 92" d="M408,296h3.344v3.344H408Zm0,0" transform="translate(-322.734 -234.141)"/>
    <path id="Path_93" data-name="Path 93" d="M408,248h3.344v3.344H408Zm0,0" transform="translate(-322.734 -196.172)"/>
  </g>
</svg>
