<svg id="tearing" xmlns="http://www.w3.org/2000/svg" width="97" height="97" viewBox="0 0 97 97">
  <path id="Path_98" data-name="Path 98" d="M78.935,32H42.952V42.952H32V63.29H78.935Z" transform="translate(-25.742 -25.742)" fill="#f0bc5e"/>
  <path id="Path_99" data-name="Path 99" d="M97,62.581V0H16.562L0,16.562V62.581H56.545l-.164,3.458A15.647,15.647,0,1,0,67.274,88.129a15.633,15.633,0,1,0,10.9-22.091L78,62.581Zm-3.129-3.129H77.855L75.392,7.74a8.063,8.063,0,0,0-1.735-4.611H93.871ZM65.71,31.29v3.129H61.018L62.28,7.89A4.977,4.977,0,0,1,65.708,3.4V28.161h3.129V3.4a4.975,4.975,0,0,1,3.428,4.49l1.266,26.53H68.839V31.29ZM15.645,5.341v10.3H5.341ZM3.129,59.452V18.774H18.774V3.129H60.891A8.063,8.063,0,0,0,59.156,7.74L56.693,59.452Zm57.144-9.387H65.71V72.008a15.723,15.723,0,0,0-6.244-4.977ZM53.194,93.871A12.516,12.516,0,1,1,65.71,81.355,12.531,12.531,0,0,1,53.194,93.871ZM93.871,81.355A12.516,12.516,0,1,1,81.355,68.839,12.531,12.531,0,0,1,93.871,81.355ZM68.839,72.008V46.935H60.422l.447-9.387h12.81l1.4,29.483A15.723,15.723,0,0,0,68.839,72.008Z"/>
  <rect id="Rectangle_15" data-name="Rectangle 15" width="3" height="3" transform="translate(66 41)"/>
  <path id="Path_100" data-name="Path 100" d="M377.387,386.774A9.387,9.387,0,1,0,368,377.387,9.4,9.4,0,0,0,377.387,386.774Zm0-15.645a6.258,6.258,0,1,1-6.258,6.258A6.264,6.264,0,0,1,377.387,371.129Z" transform="translate(-296.032 -296.032)"/>
  <path id="Path_101" data-name="Path 101" d="M233.387,368a9.387,9.387,0,1,0,9.387,9.387A9.4,9.4,0,0,0,233.387,368Zm0,15.645a6.258,6.258,0,1,1,6.258-6.258A6.264,6.264,0,0,1,233.387,383.645Z" transform="translate(-180.194 -296.032)"/>
</svg>
