<svg xmlns="http://www.w3.org/2000/svg" width="103.656" height="103.656" viewBox="0 0 103.656 103.656">
  <g id="temperature" transform="translate(-1.672 -1.672)">
    <path id="Path_102" data-name="Path 102" d="M95.3,67.907V6.688a5.022,5.022,0,0,0-5.016-5.016H80.25a5.022,5.022,0,0,0-5.016,5.016V25.655a40.1,40.1,0,0,1-9.979,58.19c-.034.472-.052.946-.052,1.421A20.062,20.062,0,1,0,95.3,67.907Z" fill="#f0bc5e"/>
    <path id="Path_103" data-name="Path 103" d="M43.469,78.578a8.359,8.359,0,1,1,8.359-8.359A8.369,8.369,0,0,1,43.469,78.578Z" fill="#f0bc5e"/>
    <path id="Path_104" data-name="Path 104" d="M43.469,15.047A35.109,35.109,0,1,0,78.578,50.156,35.149,35.149,0,0,0,43.469,15.047ZM75.234,50.156a31.54,31.54,0,0,1-3.486,14.4l-2.889-1.669a28.176,28.176,0,0,0-.012-25.449l2.9-1.675A31.539,31.539,0,0,1,75.234,50.156ZM70.078,32.862l-2.892,1.67A28.4,28.4,0,0,0,45.141,21.82V18.476A31.737,31.737,0,0,1,70.078,32.862ZM41.8,18.476V21.82A28.407,28.407,0,0,0,19.751,34.533l-2.892-1.67A31.737,31.737,0,0,1,41.8,18.476ZM15.189,35.76l2.9,1.675a28.176,28.176,0,0,0-.012,25.449l-2.889,1.669a31.471,31.471,0,0,1,0-28.793Zm1.67,31.69,2.886-1.665a28.813,28.813,0,0,0,3.661,4.469v4.5A32.058,32.058,0,0,1,16.859,67.45Zm9.891,9.665V68.829l-.522-.495a24.841,24.841,0,0,1-7.838-18.178,25.078,25.078,0,0,1,50.156,0,24.841,24.841,0,0,1-7.838,18.178l-.522.495v8.286a31.479,31.479,0,0,1-33.437,0Zm36.781-2.357v-4.5a28.79,28.79,0,0,0,3.662-4.469l2.886,1.665A32.056,32.056,0,0,1,63.531,74.758Z"/>
    <path id="Path_105" data-name="Path 105" d="M85.266,50.156a41.8,41.8,0,1,0-41.8,41.8A41.844,41.844,0,0,0,85.266,50.156Zm-41.8,38.453A38.453,38.453,0,1,1,81.922,50.156,38.5,38.5,0,0,1,43.469,88.609Z"/>
    <path id="Path_106" data-name="Path 106" d="M85.266,71.891v3.344A10.031,10.031,0,1,1,75.234,85.266H71.891A13.375,13.375,0,1,0,85.266,71.891Z"/>
    <path id="Path_107" data-name="Path 107" d="M45.141,68.547H41.8v6.688h3.344Z"/>
    <path id="Path_108" data-name="Path 108" d="M35.109,35.109a5.022,5.022,0,0,0-5.016,5.016V41.8h3.344V40.125a1.672,1.672,0,1,1,3.344,0v.286a1.664,1.664,0,0,1-.49,1.184l-6.2,6.2v4.036H40.125V48.484h-6l4.526-4.526a4.979,4.979,0,0,0,1.47-3.548v-.286A5.022,5.022,0,0,0,35.109,35.109Z"/>
    <path id="Path_109" data-name="Path 109" d="M48.484,35.109c-3.688,0-6.687,3.75-6.687,8.359s3,8.359,6.688,8.359,6.688-3.75,6.688-8.359S52.173,35.109,48.484,35.109Zm0,13.375c-1.812,0-3.344-2.3-3.344-5.016s1.532-5.016,3.344-5.016,3.344,2.3,3.344,5.016S50.3,48.484,48.484,48.484Z"/>
    <path id="Path_110" data-name="Path 110" d="M95.3,8.359H90.281V11.7H95.3Z"/>
    <path id="Path_111" data-name="Path 111" d="M95.3,15.047H86.938v3.344H95.3Z"/>
    <path id="Path_112" data-name="Path 112" d="M95.3,21.734H90.281v3.344H95.3Z"/>
    <path id="Path_113" data-name="Path 113" d="M95.3,28.422H86.938v3.344H95.3Z"/>
    <path id="Path_114" data-name="Path 114" d="M95.3,35.109H90.281v3.344H95.3Z"/>
    <path id="Path_115" data-name="Path 115" d="M95.3,41.8H86.938v3.344H95.3Z"/>
    <path id="Path_116" data-name="Path 116" d="M95.3,48.484H90.281v3.344H95.3Z"/>
    <path id="Path_117" data-name="Path 117" d="M95.3,55.172H86.938v3.344H95.3Z"/>
    <path id="Path_118" data-name="Path 118" d="M95.3,61.859H90.281V65.2H95.3Z"/>
  </g>
</svg>
