<svg xmlns="http://www.w3.org/2000/svg" width="107.984" height="106.242" viewBox="0 0 107.984 106.242">
  <g id="warehouse" transform="translate(-1 -2)">
    <g id="Group_14" data-name="Group 14" transform="translate(18.417 64.7)">
      <path id="Path_122" data-name="Path 122" d="M49.45,58.708H39V50H49.45Z" transform="translate(9.767 -29.1)" fill="#f0bc5e"/>
      <path id="Path_123" data-name="Path 123" d="M39.45,46.708H29V38H39.45Z" transform="translate(2.35 -38)" fill="#f0bc5e"/>
      <path id="Path_124" data-name="Path 124" d="M24.933,56.192H11V44H24.933Z" transform="translate(-11 -33.55)" fill="#f0bc5e"/>
    </g>
    <path id="Path_125" data-name="Path 125" d="M98.534,91.409V20H95.05V91.409H88.084V32.192H21.9V60.059H14.933V20H11.45V60.059H9.708a5.231,5.231,0,0,0-5.225,5.225V89.667a5.166,5.166,0,0,0,.32,1.742H1v3.483H108.984V91.409ZM84.6,35.675v6.967H25.383V35.675ZM25.383,46.125H84.6v24.7a5.166,5.166,0,0,0-1.742-.32H70.347a5.166,5.166,0,0,0,.32-1.742V54.834a5.231,5.231,0,0,0-5.225-5.225h-20.9a5.231,5.231,0,0,0-5.225,5.225v5.225H25.383ZM54.992,70.509H46.284V65.284a5.218,5.218,0,0,0-3.483-4.9V54.834a1.742,1.742,0,0,1,1.742-1.742h20.9a1.742,1.742,0,0,1,1.742,1.742V68.767a1.742,1.742,0,0,1-1.742,1.742H54.992ZM9.708,91.409a1.742,1.742,0,0,1-1.742-1.742V65.284a1.742,1.742,0,0,1,1.742-1.742h31.35A1.742,1.742,0,0,1,42.8,65.284V89.667a1.742,1.742,0,0,1-1.742,1.742Zm36.255,0a5.166,5.166,0,0,0,.32-1.742V73.992h8.708a1.742,1.742,0,0,1,1.742,1.742V89.667a1.742,1.742,0,0,1-1.742,1.742Zm16,0a1.742,1.742,0,0,1-1.742-1.742V75.734a1.742,1.742,0,0,1,1.742-1.742h20.9A1.742,1.742,0,0,1,84.6,75.734V89.667a1.742,1.742,0,0,1-1.742,1.742Z" transform="translate(0 13.35)"/>
    <path id="Path_126" data-name="Path 126" d="M49.383,15H25V32.417H49.383ZM45.9,21.967H38.933V18.483H45.9ZM35.45,18.483v3.483H28.483V18.483ZM28.483,25.45H35.45v3.483H28.483Zm10.45,3.483V25.45H45.9v3.483Z" transform="translate(17.8 9.642)"/>
    <path id="Path_127" data-name="Path 127" d="M13,57h3.483v3.483H13Z" transform="translate(8.9 40.792)"/>
    <path id="Path_128" data-name="Path 128" d="M21,57h3.483v3.483H21Z" transform="translate(14.834 40.792)"/>
    <path id="Path_129" data-name="Path 129" d="M17,57h3.483v3.483H17Z" transform="translate(11.867 40.792)"/>
    <path id="Path_130" data-name="Path 130" d="M22.225,29.45A5.225,5.225,0,1,0,17,24.225,5.231,5.231,0,0,0,22.225,29.45Zm0-6.967a1.742,1.742,0,1,1-1.742,1.742A1.742,1.742,0,0,1,22.225,22.483Z" transform="translate(11.867 12.608)"/>
    <path id="Path_131" data-name="Path 131" d="M46.225,29.45A5.225,5.225,0,1,0,41,24.225,5.231,5.231,0,0,0,46.225,29.45Zm0-6.967a1.742,1.742,0,1,1-1.742,1.742A1.742,1.742,0,0,1,46.225,22.483Z" transform="translate(29.667 12.608)"/>
    <path id="Path_132" data-name="Path 132" d="M54.252,14.192a6.327,6.327,0,0,0-3.238.892L9.89,39.587A5.226,5.226,0,1,1,4.56,30.6l46.454-27.7a6.324,6.324,0,0,1,6.476,0l46.45,27.7a5.225,5.225,0,0,1-5.328,8.991L57.49,15.083a6.331,6.331,0,0,0-3.238-.892Z" transform="translate(0.742)" fill="#f0bc5e"/>
  </g>
</svg>
