<svg width="103" height="103" viewBox="0 0 103 103" fill="none" xmlns="http://www.w3.org/2000/svg">
<g clip-path="url(#clip0)">
<path d="M87.719 34.9058C86.2362 34.9058 84.8207 33.4067 83.4417 31.9466C82.8536 31.3236 81.9151 30.3283 81.4032 30.0046C80.8914 30.3283 79.9512 31.3252 79.3631 31.9466C77.6288 33.7823 75.8329 35.6829 73.9225 34.578C71.9741 33.4497 72.7415 30.8969 73.4821 28.4261C73.7133 27.6587 74.075 26.4492 74.1318 25.8417C73.5883 25.5991 72.4105 25.325 71.6618 25.1522C69.1017 24.5535 66.4516 23.9395 66.4516 21.6317C66.4516 19.3239 69.1017 18.7041 71.665 18.1095C72.4121 17.9351 73.5883 17.6593 74.1318 17.42C74.0767 16.8125 73.7133 15.5998 73.4821 14.834C72.7415 12.3632 71.9757 9.80957 73.9225 8.68366C75.8264 7.57721 77.6272 9.47618 79.3647 11.3167C79.9528 11.9381 80.8914 12.9334 81.4032 13.2571C81.9151 12.9334 82.8552 11.9365 83.4433 11.3135C85.1776 9.4778 86.9687 7.57397 88.8839 8.68203C90.8323 9.80957 90.065 12.3632 89.3244 14.834C89.0932 15.6014 88.7314 16.8108 88.6746 17.4184C89.2181 17.661 90.3959 17.9351 91.143 18.1079C93.7047 18.7057 96.3548 19.3222 96.3548 21.6317C96.3548 23.9411 93.7047 24.5576 91.143 25.1522C90.3959 25.3266 89.2181 25.6024 88.6746 25.8417C88.7298 26.4492 89.0932 27.662 89.3244 28.4277C90.065 30.8986 90.8307 33.4521 88.8839 34.578C88.4921 34.8044 88.1035 34.9058 87.719 34.9058ZM81.5727 13.3471C81.5744 13.3471 81.5744 13.3471 81.5727 13.3471V13.3471Z" fill="#F0BC5E"/>
<path d="M16.6129 33.2258H26.5807V51.5H16.6129V33.2258Z" fill="#F0BC5E"/>
<path d="M29.9031 39.8711H39.8709V51.5001H29.9031V39.8711Z" fill="#F0BC5E"/>
<path d="M43.1936 26.5806H53.1613V51.4999H43.1936V26.5806Z" fill="#F0BC5E"/>
<path d="M101.705 66.4167C102.502 65.5325 103 64.375 103 63.0942C103 60.3467 100.764 58.1103 98.0161 58.1103H88.0484C88.0338 58.1103 88.02 58.1135 88.0054 58.1135C88.0167 57.8945 88.0484 57.6747 88.0484 57.4524V46.4812C88.0484 41.9013 84.3218 38.1748 79.7419 38.1748H78.0806V48.3851C78.0806 52.7257 75.6682 56.6283 71.7875 58.5702C71.1451 58.8914 70.4653 59.134 69.7742 59.3279V28.2419H66.4516V59.7716H59.8064V56.449H39.871V86.3522H59.8064V83.0296H66.4516V98.0161C66.4516 98.9328 65.7053 99.6774 64.7903 99.6774H4.98387C4.06886 99.6774 3.32258 98.9328 3.32258 98.0161V14.9516C3.32258 14.035 4.06886 13.2903 4.98387 13.2903H19.9355V16.6129H6.64516V96.3548H63.129V89.9238H59.8064V93.0323H9.96774V19.9355H20.2413C20.9292 21.8645 22.7568 23.2581 24.9194 23.2581H44.8548C47.0174 23.2581 48.845 21.8645 49.5329 19.9355H59.8064V53.1613H63.129V16.6129H49.8387V13.2903H64.7903C65.7053 13.2903 66.4516 14.035 66.4516 14.9516H69.7742C69.7742 12.2042 67.5378 9.96774 64.7903 9.96774H49.5329C48.845 8.03876 47.0174 6.64516 44.8548 6.64516H43.0256C42.255 2.8594 38.8992 0 34.8871 0C30.875 0 27.5192 2.8594 26.7486 6.64516H24.9194C22.7568 6.64516 20.9292 8.03876 20.2413 9.96774H4.98387C2.23641 9.96774 0 12.2042 0 14.9516V98.0161C0 100.764 2.23641 103 4.98387 103H64.7903C67.5378 103 69.7742 100.764 69.7742 98.0161V84.0582L75.2334 86.7878C76.8412 87.5901 78.6387 88.0135 80.4331 88.0135H98.0161C100.764 88.0135 103 85.7771 103 83.0296C103 81.7488 102.5 80.5912 101.705 79.7071C102.502 78.8229 103 77.6653 103 76.3845C103 75.1036 102.5 73.9461 101.705 73.0619C102.502 72.1777 103 71.0202 103 69.7393C103 68.4585 102.5 67.3009 101.705 66.4167ZM23.2581 11.629C23.2581 10.7124 24.0043 9.96774 24.9194 9.96774H29.9032V8.30645C29.9032 5.559 32.1396 3.32258 34.8871 3.32258C37.6346 3.32258 39.871 5.559 39.871 8.30645V9.96774H44.8548C45.7698 9.96774 46.5161 10.7124 46.5161 11.629V18.2742C46.5161 19.1908 45.7698 19.9355 44.8548 19.9355H24.9194C24.0043 19.9355 23.2581 19.1908 23.2581 18.2742V11.629ZM99.6774 76.3845C99.6774 77.3011 98.9311 78.0458 98.0161 78.0458H88.0484C87.1334 78.0458 86.3871 77.3011 86.3871 76.3845C86.3871 75.467 87.1334 74.7232 88.0484 74.7232H98.0161C98.9311 74.7232 99.6774 75.4695 99.6774 76.3845ZM88.0484 71.4006C87.1334 71.4006 86.3871 70.6559 86.3871 69.7393C86.3871 68.8219 87.1334 68.078 88.0484 68.078H98.0161C98.9311 68.078 99.6774 68.8219 99.6774 69.7393C99.6774 70.6559 98.9311 71.4006 98.0161 71.4006H88.0484ZM88.0484 61.4329H98.0161C98.9311 61.4329 99.6774 62.1767 99.6774 63.0942C99.6774 64.0108 98.9311 64.7554 98.0161 64.7554H88.0484C87.2145 64.7554 86.5518 64.1276 86.4333 63.3253C86.7456 62.7932 87.0149 62.2367 87.2396 61.6624C87.4505 61.5407 87.7028 61.4329 88.0484 61.4329ZM56.4839 83.0296H53.1613V66.4516H49.8387V83.0296H43.1935V59.7716H49.8387V63.129H53.1613V59.7716H56.4839V83.0296ZM76.7187 83.8157L68.5047 79.7071H59.8064V63.0942H66.6925C68.9638 63.0942 71.2392 62.5572 73.2744 61.5407C78.2883 59.0342 81.4032 53.9919 81.4032 48.3851V41.7813C83.3371 42.4675 84.7258 44.3146 84.7258 46.4812V57.4524C84.7258 60.3532 83.1805 63.0828 80.6918 64.5745L77.2249 66.6544L78.9348 69.5033L82.4002 67.4234C83.0231 67.0494 83.5861 66.6041 84.119 66.128C84.1961 66.2277 84.274 66.3234 84.3583 66.4167C83.561 67.3009 83.0629 68.4585 83.0629 69.7393C83.0629 71.0202 83.5626 72.1777 84.3583 73.0619C83.561 73.9461 83.0629 75.1036 83.0629 76.3845C83.0629 77.6653 83.5626 78.8229 84.3583 79.7071C83.561 80.5912 83.0629 81.7488 83.0629 83.0296C83.0629 83.6145 83.1821 84.1693 83.3687 84.6909H80.4314C79.1522 84.6909 77.8665 84.3884 76.7187 83.8157ZM98.0161 84.6909H88.0484C87.1334 84.6909 86.3871 83.9463 86.3871 83.0296C86.3871 82.1122 87.1334 81.3683 88.0484 81.3683H98.0161C98.9311 81.3683 99.6774 82.1122 99.6774 83.0296C99.6774 83.9463 98.9311 84.6909 98.0161 84.6909Z" fill="black"/>
<path d="M13.2902 86.3872H16.6128V89.7098H13.2902V86.3872Z" fill="black"/>
<path d="M19.9355 86.3872H36.5485V89.7098H19.9355V86.3872Z" fill="black"/>
<path d="M13.2902 79.7419H16.6128V83.0645H13.2902V79.7419Z" fill="black"/>
<path d="M19.9355 79.7419H36.5485V83.0645H19.9355V79.7419Z" fill="black"/>
<path d="M13.2902 73.0967H16.6128V76.4193H13.2902V73.0967Z" fill="black"/>
<path d="M19.9355 73.0967H36.5485V76.4193H19.9355V73.0967Z" fill="black"/>
<path d="M13.2902 66.4517H16.6128V69.7742H13.2902V66.4517Z" fill="black"/>
<path d="M19.9355 66.4517H36.5485V69.7742H19.9355V66.4517Z" fill="black"/>
<path d="M13.2902 59.8064H16.6128V63.129H13.2902V59.8064Z" fill="black"/>
<path d="M19.9355 59.8064H36.5485V63.129H19.9355V59.8064Z" fill="black"/>
<path d="M13.2902 49.8386H56.4838V53.1612H13.2902V49.8386Z" fill="black"/>
<path d="M26.5807 13.2903H29.9033V16.6129H26.5807V13.2903Z" fill="black"/>
<path d="M39.8709 13.2903H43.1935V16.6129H39.8709V13.2903Z" fill="black"/>
</g>
<defs>
<clipPath id="clip0">
<rect width="103" height="103" fill="white"/>
</clipPath>
</defs>
</svg>
