<svg width="107" height="107" viewBox="0 0 107 107" fill="none" xmlns="http://www.w3.org/2000/svg">
<path d="M95.2969 67.9065V6.6875C95.2969 3.92222 93.0465 1.67188 90.2812 1.67188H80.25C77.4847 1.67188 75.2344 3.92222 75.2344 6.6875V25.6549C80.4707 32.4344 83.5938 40.9275 83.5938 50.1562C83.5938 64.2819 76.2877 76.6939 65.255 83.8445C65.2215 84.316 65.2031 84.7908 65.2031 85.2656C65.2031 96.3284 74.2028 105.328 85.2656 105.328C96.3284 105.328 105.328 96.3284 105.328 85.2656C105.328 78.0532 101.511 71.4927 95.2969 67.9065Z" fill="#F0BC5E"/>
<path d="M43.4688 78.5781C38.8594 78.5781 35.1094 74.8281 35.1094 70.2188C35.1094 65.6094 38.8594 61.8594 43.4688 61.8594C48.0781 61.8594 51.8281 65.6094 51.8281 70.2188C51.8281 74.8281 48.0781 78.5781 43.4688 78.5781Z" fill="#F0BC5E"/>
<path d="M43.4688 15.0469C24.1101 15.0469 8.35938 30.7959 8.35938 50.1562C8.35938 69.5166 24.1101 85.2656 43.4688 85.2656C62.8274 85.2656 78.5781 69.5166 78.5781 50.1562C78.5781 30.7959 62.8274 15.0469 43.4688 15.0469ZM75.2344 50.1562C75.2344 55.3407 73.9604 60.2243 71.7485 64.5528L68.8595 62.8842C70.8273 58.9854 71.8906 54.6636 71.8906 50.1562C71.8906 45.5803 70.7772 41.2669 68.8478 37.435L71.7485 35.7597C73.9604 40.0882 75.2344 44.9718 75.2344 50.1562ZM70.0783 32.8624L67.186 34.5326C62.386 27.27 54.346 22.358 45.1406 21.8196V18.4759C55.5798 19.0226 64.6932 24.605 70.0783 32.8624ZM41.7969 18.4759V21.8196C32.5915 22.3597 24.5515 27.2716 19.7515 34.5326L16.8592 32.8624C22.2443 24.605 31.3577 19.0226 41.7969 18.4759ZM15.189 35.7597L18.0897 37.435C16.1603 41.2669 15.0469 45.5803 15.0469 50.1562C15.0469 54.6636 16.1102 58.9854 18.078 62.8842L15.189 64.5528C12.9771 60.2243 11.7031 55.3407 11.7031 50.1562C11.7031 44.9718 12.9771 40.0882 15.189 35.7597ZM16.8592 67.4501L19.7448 65.7849C20.8015 67.3749 22.0203 68.8729 23.4062 70.2539V74.7579C20.8633 72.6797 18.6598 70.2087 16.8592 67.4501ZM26.75 77.1152V68.8294L26.2284 68.3345C21.1743 63.5396 18.3906 57.0845 18.3906 50.1562C18.3906 36.3282 29.6407 25.0781 43.4688 25.0781C57.2968 25.0781 68.5469 36.3282 68.5469 50.1562C68.5469 57.0845 65.7632 63.5396 60.7091 68.3345L60.1875 68.8294V77.1152C55.324 80.143 49.6062 81.9219 43.4688 81.9219C37.3313 81.9219 31.6135 80.143 26.75 77.1152ZM63.5312 74.7579V70.2539C64.9172 68.8729 66.1377 67.3732 67.1927 65.7849L70.0783 67.4501C68.2777 70.2087 66.0742 72.6797 63.5312 74.7579Z" fill="black"/>
<path d="M85.2656 50.1562C85.2656 27.1095 66.5155 8.35938 43.4688 8.35938C20.422 8.35938 1.67188 27.1095 1.67188 50.1562C1.67188 73.203 20.422 91.9531 43.4688 91.9531C66.5155 91.9531 85.2656 73.203 85.2656 50.1562ZM43.4688 88.6094C22.2644 88.6094 5.01562 71.359 5.01562 50.1562C5.01562 28.9535 22.2644 11.7031 43.4688 11.7031C64.6731 11.7031 81.9219 28.9535 81.9219 50.1562C81.9219 71.359 64.6731 88.6094 43.4688 88.6094Z" fill="black"/>
<path d="M85.2656 71.8906V75.2344C90.7979 75.2344 95.2969 79.7334 95.2969 85.2656C95.2969 90.7979 90.7979 95.2969 85.2656 95.2969C79.7334 95.2969 75.2344 90.7979 75.2344 85.2656H71.8906C71.8906 92.6403 77.891 98.6406 85.2656 98.6406C92.6403 98.6406 98.6406 92.6403 98.6406 85.2656C98.6406 77.891 92.6403 71.8906 85.2656 71.8906Z" fill="black"/>
<path d="M45.1406 68.5469H41.7969V75.2344H45.1406V68.5469Z" fill="black"/>
<path d="M35.1094 35.1094C32.3441 35.1094 30.0938 37.3597 30.0938 40.125V41.7969H33.4375V40.125C33.4375 39.2038 34.1865 38.4531 35.1094 38.4531C36.0322 38.4531 36.7812 39.2038 36.7812 40.125V40.4109C36.7812 40.8573 36.6074 41.2786 36.2914 41.5946L30.0938 47.7922V51.8281H40.125V48.4844H34.1297L38.6554 43.9586C39.6034 43.0123 40.125 41.7517 40.125 40.4109V40.125C40.125 37.3597 37.8747 35.1094 35.1094 35.1094Z" fill="black"/>
<path d="M48.4844 35.1094C44.7962 35.1094 41.7969 38.8594 41.7969 43.4688C41.7969 48.0781 44.7962 51.8281 48.4844 51.8281C52.1725 51.8281 55.1719 48.0781 55.1719 43.4688C55.1719 38.8594 52.1725 35.1094 48.4844 35.1094ZM48.4844 48.4844C46.6721 48.4844 45.1406 46.1872 45.1406 43.4688C45.1406 40.7503 46.6721 38.4531 48.4844 38.4531C50.2967 38.4531 51.8281 40.7503 51.8281 43.4688C51.8281 46.1872 50.2967 48.4844 48.4844 48.4844Z" fill="black"/>
<path d="M95.2969 8.35938H90.2812V11.7031H95.2969V8.35938Z" fill="black"/>
<path d="M95.2969 15.0469H86.9375V18.3906H95.2969V15.0469Z" fill="black"/>
<path d="M95.2969 21.7344H90.2812V25.0781H95.2969V21.7344Z" fill="black"/>
<path d="M95.2969 28.4219H86.9375V31.7656H95.2969V28.4219Z" fill="black"/>
<path d="M95.2969 35.1094H90.2812V38.4531H95.2969V35.1094Z" fill="black"/>
<path d="M95.2969 41.7969H86.9375V45.1406H95.2969V41.7969Z" fill="black"/>
<path d="M95.2969 48.4844H90.2812V51.8281H95.2969V48.4844Z" fill="black"/>
<path d="M95.2969 55.1719H86.9375V58.5156H95.2969V55.1719Z" fill="black"/>
<path d="M95.2969 61.8594H90.2812V65.2031H95.2969V61.8594Z" fill="black"/>
</svg>
