<svg xmlns="http://www.w3.org/2000/svg" width="94.667" height="94.667" viewBox="0 0 94.667 94.667">
  <g id="condition" transform="translate(-1 -1)">
    <g id="Group_19" data-name="Group 19" transform="translate(30.011 30.011)">
      <circle id="Ellipse_2" data-name="Ellipse 2" cx="18.5" cy="18.5" r="18.5" transform="translate(-0.011 -0.011)" fill="#f0bc5e"/>
    </g>
    <g id="Group_20" data-name="Group 20" transform="translate(1 1)">
      <path id="Path_144" data-name="Path 144" d="M38.849,58.7A19.849,19.849,0,1,0,19,38.849,19.872,19.872,0,0,0,38.849,58.7Zm0-36.645c1.641,0,3.39,2.332,4.594,6.108h-9.19c1.206-3.776,2.955-6.108,4.6-6.108Zm5.373,9.161a37.862,37.862,0,0,1,.7,6.108H32.774a38.035,38.035,0,0,1,.7-6.108Zm11.345,6.108h-7.59a41.875,41.875,0,0,0-.624-6.108H53.79A16.614,16.614,0,0,1,55.567,37.323ZM38.849,55.645c-1.641,0-3.39-2.332-4.594-6.108h9.19c-1.206,3.776-2.955,6.108-4.6,6.108Zm-5.373-9.161a37.862,37.862,0,0,1-.7-6.108H44.925a38.035,38.035,0,0,1-.7,6.108Zm14.5-6.108h7.59a16.643,16.643,0,0,1-1.777,6.108H47.353A41.665,41.665,0,0,0,47.977,40.376ZM29.722,37.323h-7.59a16.643,16.643,0,0,1,1.777-6.108h6.437a41.665,41.665,0,0,0-.624,6.108Zm0,3.054a41.875,41.875,0,0,0,.624,6.108H23.909a16.672,16.672,0,0,1-1.777-6.108ZM25.9,49.538h5.15a21.1,21.1,0,0,0,2.124,5.1A16.87,16.87,0,0,1,25.9,49.538Zm18.617,5.1a21.163,21.163,0,0,0,2.124-5.1h5.15A16.852,16.852,0,0,1,44.52,54.639ZM51.8,28.161h-5.15a21.1,21.1,0,0,0-2.124-5.1A16.87,16.87,0,0,1,51.8,28.161Zm-18.617-5.1a21.163,21.163,0,0,0-2.124,5.1H25.9A16.852,16.852,0,0,1,33.179,23.06Z" transform="translate(8.484 8.484)"/>
      <path id="Path_145" data-name="Path 145" d="M30.011,45.108a6.829,6.829,0,0,0-1.122.093A12.369,12.369,0,0,0,17.8,39,12.392,12.392,0,0,0,6.613,45.4,7.624,7.624,0,0,0,8.634,60.376H30.011a7.634,7.634,0,0,0,0-15.269Zm0,12.215H8.634a4.569,4.569,0,0,1-.71-9.083l.86-.136.322-.808c1.249-3.135,4.741-5.242,8.689-5.242,4.019,0,7.63,2.245,8.78,5.457l.51,1.426,1.431-.5a4.51,4.51,0,0,1,1.495-.278,4.581,4.581,0,0,1,0,9.161Z" transform="translate(-1 19.022)"/>
      <path id="Path_146" data-name="Path 146" d="M70.118,47.108A6.828,6.828,0,0,0,69,47.2,12.369,12.369,0,0,0,57.9,41,12.392,12.392,0,0,0,46.72,47.4a7.6,7.6,0,0,0-4.068,11.925l-.018,0a7.634,7.634,0,1,0,0,15.269H64.011a7.631,7.631,0,0,0,6.1-12.215h0a7.634,7.634,0,0,0,0-15.269Zm-6.108,24.43H42.634a4.581,4.581,0,1,1,0-9.161,4.51,4.51,0,0,1,1.495.278l1.431.5.51-1.426c1.15-3.213,4.761-5.457,8.78-5.457,3.949,0,7.441,2.107,8.689,5.242l.322.808.86.136a4.569,4.569,0,0,1-.71,9.083Zm6.108-12.215H65.857a12.438,12.438,0,0,0-11.007-6.108,12.79,12.79,0,0,0-9.74,4.265,4.518,4.518,0,0,1,2.922-7.24l.86-.136.322-.808c1.249-3.135,4.741-5.242,8.689-5.242,4.019,0,7.63,2.245,8.78,5.457l.51,1.426,1.431-.5a4.51,4.51,0,0,1,1.495-.278,4.581,4.581,0,1,1,0,9.161Z" transform="translate(16.914 20.075)"/>
      <path id="Path_147" data-name="Path 147" d="M6,57H9.054v3.054H6Z" transform="translate(1.634 28.505)"/>
      <path id="Path_148" data-name="Path 148" d="M6,61H9.054v3.054H6Z" transform="translate(1.634 30.613)"/>
      <path id="Path_149" data-name="Path 149" d="M10,59h3.054v3.054H10Z" transform="translate(3.742 29.559)"/>
      <path id="Path_150" data-name="Path 150" d="M10,55h3.054v3.054H10Z" transform="translate(3.742 27.452)"/>
      <path id="Path_151" data-name="Path 151" d="M14,61h3.054v3.054H14Z" transform="translate(5.849 30.613)"/>
      <path id="Path_152" data-name="Path 152" d="M14,57h3.054v3.054H14Z" transform="translate(5.849 28.505)"/>
      <path id="Path_153" data-name="Path 153" d="M18,59h3.054v3.054H18Z" transform="translate(7.957 29.559)"/>
      <path id="Path_154" data-name="Path 154" d="M18,55h3.054v3.054H18Z" transform="translate(7.957 27.452)"/>
      <path id="Path_155" data-name="Path 155" d="M31,1h3.054V25.43H31Z" transform="translate(14.806 -1)"/>
      <path id="Path_156" data-name="Path 156" d="M1,31H25.43v3.054H1Z" transform="translate(-1 14.806)"/>
      <path id="Path_157" data-name="Path 157" d="M31,47h3.054V71.43H31Z" transform="translate(14.806 23.237)"/>
      <path id="Path_158" data-name="Path 158" d="M47,31H71.43v3.054H47Z" transform="translate(23.237 14.806)"/>
      <path id="Path_159" data-name="Path 159" d="M16.161,25.323A9.161,9.161,0,1,0,7,16.161,9.171,9.171,0,0,0,16.161,25.323Zm0-15.269a6.108,6.108,0,1,1-6.108,6.108A6.114,6.114,0,0,1,16.161,10.054Z" transform="translate(2.161 2.161)"/>
      <path id="Path_160" data-name="Path 160" d="M12,1h3.054V7.108H12Z" transform="translate(4.796 -1)"/>
      <path id="Path_161" data-name="Path 161" d="M0,0H3.054V6.108H0Z" transform="translate(4.285 6.446) rotate(-45)"/>
      <path id="Path_162" data-name="Path 162" d="M1,12H7.108v3.054H1Z" transform="translate(-1 4.796)"/>
      <path id="Path_163" data-name="Path 163" d="M0,0H6.108V3.054H0Z" transform="translate(4.283 30.196) rotate(-45)"/>
      <path id="Path_164" data-name="Path 164" d="M12,21h3.054v6.108H12Z" transform="translate(4.796 9.538)"/>
      <path id="Path_165" data-name="Path 165" d="M0,0H3.054V6.108H0Z" transform="translate(25.875 28.041) rotate(-45)"/>
      <path id="Path_166" data-name="Path 166" d="M21,12h6.108v3.054H21Z" transform="translate(9.538 4.796)"/>
      <path id="Path_167" data-name="Path 167" d="M0,0H6.108V3.054H0Z" transform="translate(25.879 8.607) rotate(-45)"/>
      <path id="Path_168" data-name="Path 168" d="M40.971,11.009a3.229,3.229,0,0,0-.918,2.206c0,1.722,1.481,3.054,3.77,4.031a3.534,3.534,0,0,0-.716,2.077c0,1.8,1.394,3.206,3.541,4.219a4.048,4.048,0,0,0-.487,1.889c0,1.822,1.266,3.4,3.336,4.5a4.879,4.879,0,0,0-.282,1.6c0,2.228,1.841,3.356,3.323,4.263,1.727,1.057,2.785,1.785,2.785,3.371v1.243a3.339,3.339,0,0,0,6.462,1.18c1.231-3.28,2.7-7.685,2.7-10.058a4.88,4.88,0,0,0-.282-1.6c2.07-1.1,3.336-2.681,3.336-4.5a4.048,4.048,0,0,0-.487-1.889c2.147-1.012,3.541-2.422,3.541-4.219a3.534,3.534,0,0,0-.716-2.077c2.289-.977,3.77-2.309,3.77-4.031a3.229,3.229,0,0,0-.918-2.206c2.373-.922,3.971-2.183,3.971-3.9C76.7,2.287,64.221,1,56.849,1S37,2.287,37,7.108c0,1.718,1.6,2.979,3.971,3.9ZM61.43,31.538c0,1.451-.936,4.808-2.506,8.983a.294.294,0,0,1-.548-.105V39.172c0-3.377-2.452-4.878-4.245-5.976-1.159-.71-1.863-1.176-1.863-1.658a1.865,1.865,0,0,1,.105-.528,19.219,19.219,0,0,0,8.951,0A1.865,1.865,0,0,1,61.43,31.538Zm3.054-6.108c0,1.244-2.974,3.054-7.634,3.054s-7.634-1.809-7.634-3.054a1.348,1.348,0,0,1,.412-.846,29.809,29.809,0,0,0,7.222.846,29.809,29.809,0,0,0,7.222-.846A1.348,1.348,0,0,1,64.484,25.43Zm3.054-6.108c0,.886-3.745,3.054-10.688,3.054s-10.688-2.168-10.688-3.054c0-.179.29-.571.983-1.017a43.824,43.824,0,0,0,9.7,1.017,43.824,43.824,0,0,0,9.7-1.017C67.248,18.752,67.538,19.144,67.538,19.323Zm3.057-6.13c-.232.847-4.811,3.077-13.745,3.077S43.337,14.04,43.1,13.244c.04-.134.434-.6,1.643-1.154a62.785,62.785,0,0,0,12.1,1.125,62.906,62.906,0,0,0,12.1-1.125,3.88,3.88,0,0,1,1.643,1.1ZM56.849,4.054c9.873,0,15.889,1.9,16.748,3.054-.86,1.151-6.876,3.054-16.748,3.054S40.961,8.259,40.1,7.108C40.961,5.956,46.977,4.054,56.849,4.054Z" transform="translate(17.968 -1)"/>
    </g>
  </g>
</svg>
