<svg id="Layer_5" enable-background="new 0 0 64 64" height="512" viewBox="0 0 64 64" width="512" xmlns="http://www.w3.org/2000/svg"><g><path d="m25.294 46h13.413c9.42-2.878 16.293-11.65 16.293-22 0-12.682-10.317-23-23-23s-23 10.318-23 23c0 10.35 6.873 19.122 16.294 22zm6.706-32c5.514 0 10 4.486 10 10s-4.486 10-10 10-10-4.486-10-10 4.486-10 10-10z" fill="#f0bc5e"/><g><path d="m60 45h-56c-1.654 0-3 1.346-3 3v12c0 1.654 1.346 3 3 3h56c1.654 0 3-1.346 3-3v-12c0-1.654-1.346-3-3-3zm-57 15v-12c0-.551.448-1 1-1h41.998l-1.249 1.662 2.001 2.666-2 2.666 2 2.667-1.999 2.67 1.251 1.669h-42.002c-.552 0-1-.449-1-1zm58 0c0 .551-.448 1-1 1h-11.499l-1.252-1.67 2.001-2.671-2-2.666 2-2.666-1.999-2.665 1.249-1.662h11.5c.552 0 1 .449 1 1z"/><path d="m25 24c0 3.86 3.141 7 7 7s7-3.14 7-7-3.141-7-7-7-7 3.14-7 7zm12 0c0 2.757-2.243 5-5 5s-5-2.243-5-5 2.243-5 5-5 5 2.243 5 5z"/><path d="m21 24c0 6.065 4.935 11 11 11s11-4.935 11-11-4.935-11-11-11-11 4.935-11 11zm20 0c0 4.962-4.037 9-9 9s-9-4.038-9-9 4.037-9 9-9 9 4.038 9 9z"/><path d="m32 7v-2c-10.477 0-19 8.523-19 19h2c0-9.374 7.626-17 17-17z"/><path d="m13.471 28.221 1.951-.442c-.142-.622-.249-1.257-.318-1.889l-1.988.221c.077.705.197 1.415.355 2.11z"/><path d="m13 49h2v2h-2z"/><path d="m9 49h2v2h-2z"/><path d="m5 49h2v2h-2z"/></g></g></svg>