<svg width="97" height="97" viewBox="0 0 97 97" fill="none" xmlns="http://www.w3.org/2000/svg">
<g clip-path="url(#clip0)">
<path d="M10.9516 78.2258H23.4677V95.4355H10.9516V78.2258Z" fill="#F0BC5E"/>
<path d="M61.0161 78.2258H73.5323V95.4355H61.0161V78.2258Z" fill="#F0BC5E"/>
<path d="M32.8548 78.2258H51.629V95.4355H32.8548V78.2258Z" fill="#F0BC5E"/>
<path d="M80.2204 52.1187L77.4214 53.5189L80.3877 59.4516H4.09616L7.22519 53.1935H56.3149V50.0645H26.3577L23.2286 31.2903H11.1907L8.06169 50.0645H5.29094L0 60.6471V97H84.4839V60.6471L80.2204 52.1187ZM20.5778 34.4193L21.0988 37.5483H13.3205L13.8415 34.4193H20.5778ZM12.798 40.6774H21.6198L23.1843 50.0645H11.2335L12.798 40.6774ZM3.12903 93.8709V62.5806H81.3548V93.8709H3.12903Z" fill="black"/>
<path d="M6.25806 75.0968H28.1613V65.7097H6.25806V75.0968ZM15.6452 71.9678V68.8388H18.7742V71.9678H15.6452ZM25.0323 71.9678H21.9032V68.8388H25.0323V71.9678ZM9.3871 68.8388H12.5161V71.9678H9.3871V68.8388Z" fill="black"/>
<path d="M68.8387 56.3226C53.3112 56.3226 40.6774 43.6888 40.6774 28.1613C40.6774 12.6338 53.3112 0 68.8387 0C84.3662 0 97 12.6338 97 28.1613C97 43.6888 84.3662 56.3226 68.8387 56.3226Z" fill="#F0BC5E"/>
<path d="M69.2176 14.2343C73.1488 14.2343 76.7644 16.0944 79.102 19.1173L74.6132 18.5772L74.2396 21.6825L83.354 22.781L85.9949 12.9211L82.9728 12.1113L81.597 17.2426C78.678 13.4436 74.1457 11.1052 69.2161 11.1052C66.0802 11.1052 63.055 12.0296 60.4669 13.7774L62.2193 16.3694C64.2872 14.9722 66.7081 14.2343 69.2176 14.2343Z" fill="black"/>
<path d="M56.7015 26.7504C56.7015 25.0981 57.0544 23.5068 57.6678 22.0156L59.4409 26.1637L62.3179 24.9338L58.7114 16.4917L48.8522 19.1341L49.6627 22.157L54.7474 20.7941C53.9758 22.665 53.5725 24.6771 53.5725 26.7504C53.5725 32.7236 56.8955 38.0932 62.2445 40.7585L63.6417 37.9587C59.3592 35.8243 56.7015 31.5295 56.7015 26.7504Z" fill="black"/>
<path d="M70.8723 39.1443L73.5964 35.5134L71.0931 33.6357L65.5844 40.9793L72.8019 48.1968L75.0135 45.9845L71.2749 42.2451C78.9286 41.2314 84.8597 34.6792 84.8597 26.752H81.7307C81.7337 33.0879 76.9928 38.3292 70.8723 39.1443Z" fill="black"/>
<path d="M78.2258 75.0968H56.3226V65.7097H78.2258V75.0968ZM59.4516 71.9678H75.0968V68.8388H59.4516V71.9678Z" fill="black"/>
<path d="M62.5806 67.2742H65.7097V73.5322H62.5806V67.2742Z" fill="black"/>
<path d="M68.8387 67.2742H71.9677V73.5322H68.8387V67.2742Z" fill="black"/>
<path d="M53.1935 75.0968H31.2903V65.7097H53.1935V75.0968ZM34.4193 71.9678H50.0645V68.8388H34.4193V71.9678Z" fill="black"/>
<path d="M37.5484 67.2742H40.6774V73.5322H37.5484V67.2742Z" fill="black"/>
<path d="M43.8065 67.2742H46.9355V73.5322H43.8065V67.2742Z" fill="black"/>
<path d="M23.4677 28.1613H20.3387C20.3387 24.8474 23.4211 23.3081 25.8978 22.0705C28.2805 20.8803 29.7258 20.0652 29.7258 18.7788C29.7258 17.4916 28.2789 16.6749 25.8978 15.484C23.4211 14.2449 20.3387 12.7041 20.3387 9.38862C20.3387 6.07319 23.4211 4.53236 25.8978 3.29328C28.2805 2.10461 29.7258 1.28798 29.7258 0H32.8548C32.8548 3.3139 29.7724 4.85626 27.2958 6.09382C24.9146 7.28401 23.4677 8.10141 23.4677 9.38862C23.4677 10.6766 24.9131 11.4932 27.2958 12.6834C29.7724 13.9225 32.8548 15.4633 32.8548 18.7788C32.8548 22.0927 29.7724 23.632 27.2958 24.8695C24.9131 26.0605 23.4677 26.8756 23.4677 28.1613Z" fill="black"/>
<path d="M12.5161 28.1613H9.3871C9.3871 24.8474 12.4695 23.3081 14.9462 22.0705C17.3289 20.8803 18.7742 20.0652 18.7742 18.7788C18.7742 17.4916 17.3273 16.6749 14.9462 15.484C12.4695 14.2449 9.3871 12.7041 9.3871 9.38862C9.3871 6.07319 12.4695 4.53236 14.9462 3.29328C17.3289 2.10461 18.7742 1.28798 18.7742 0H21.9032C21.9032 3.3139 18.8208 4.85626 16.3442 6.09382C13.963 7.28401 12.5161 8.10141 12.5161 9.38862C12.5161 10.6766 13.9615 11.4932 16.3442 12.6834C18.8208 13.9225 21.9032 15.4633 21.9032 18.7788C21.9032 22.0927 18.8208 23.632 16.3442 24.8695C13.9615 26.0605 12.5161 26.8756 12.5161 28.1613Z" fill="black"/>
</g>
<defs>
<clipPath id="clip0">
<rect width="97" height="97" fill="white"/>
</clipPath>
</defs>
</svg>
