<svg xmlns="http://www.w3.org/2000/svg" width="99" height="99" viewBox="0 0 99 99">
  <g id="economy" transform="translate(-1 -1)">
    <path id="Path_247" data-name="Path 247" d="M72.855,40.581V67.726H54.447a30.252,30.252,0,0,0-13.528,3.194,30.252,30.252,0,0,0-13.528-3.194H8.984V31H1V75.71H33.1a7.984,7.984,0,0,0,15.645,0h32.1V32.632H80.8Z" transform="translate(0 17.903)" fill="#f0bc5e"/>
    <path id="Path_248" data-name="Path 248" d="M97.613,22.372a8.371,8.371,0,0,0-14.291-5.919L72.065,27.71V25.177H52.809v3.194H68.871V30.9L48.2,51.57,46.23,65.383l13.812-1.974,8.829-8.829V76.274H52.06A32,32,0,0,0,40.129,78.6V33.161H36.935V78.6A32,32,0,0,0,25,76.274H8.194v-47.9H24.252V25.177H5v54.29H25a28.779,28.779,0,0,1,12.814,3.026l.714.356.714-.358A28.8,28.8,0,0,1,52.06,79.468h20V51.387l23.1-23.1A8.315,8.315,0,0,0,97.613,22.372ZM56.758,57.113,83.242,30.629l2.532,2.532L59.29,59.645ZM54.5,54.855l-2.532-2.532L78.452,25.838l2.532,2.532Zm-3.661.854L55.9,60.774,50,61.619ZM92.9,26.033l-4.87,4.87-7.323-7.323,4.87-4.87A5.178,5.178,0,1,1,92.9,26.033Z" transform="translate(2.387 7.758)"/>
    <path id="Path_249" data-name="Path 249" d="M31.355,47.355H9V25H31.355ZM12.194,44.161H28.161V28.194H12.194Z" transform="translate(4.774 14.323)"/>
    <path id="Path_250" data-name="Path 250" d="M9,41H31.355V55.371H9Z" transform="translate(4.774 23.871)" fill="#f0bc5e"/>
    <path id="Path_251" data-name="Path 251" d="M9,41H31.355v3.194H9Z" transform="translate(4.774 23.871)"/>
    <path id="Path_252" data-name="Path 252" d="M9,45H24.968v3.194H9Z" transform="translate(4.774 26.258)"/>
    <path id="Path_253" data-name="Path 253" d="M21,45h3.194v3.194H21Z" transform="translate(11.935 26.258)"/>
    <path id="Path_254" data-name="Path 254" d="M9,49H31.355v3.194H9Z" transform="translate(4.774 28.645)"/>
    <path id="Path_255" data-name="Path 255" d="M29,49H51.355v3.194H29Z" transform="translate(16.71 28.645)"/>
    <circle id="Ellipse_4" data-name="Ellipse 4" cx="21" cy="21" r="21" transform="translate(20 1)" fill="#f0bc5e"/>
    <path id="Path_256" data-name="Path 256" d="M28.387,17.774a3.2,3.2,0,0,1-3.194-3.194V11.387h3.194a3.2,3.2,0,0,1,3.194,3.194h3.194a6.382,6.382,0,0,0-4.79-6.16V5H26.79V8.194H22v6.387a6.394,6.394,0,0,0,6.387,6.387,3.2,3.2,0,0,1,3.194,3.194v3.194H28.387a3.2,3.2,0,0,1-3.194-3.194H22a6.382,6.382,0,0,0,4.79,6.16v3.42h3.194V30.548h4.79V24.161A6.394,6.394,0,0,0,28.387,17.774Z" transform="translate(12.532 2.387)"/>
    <circle id="Ellipse_5" data-name="Ellipse 5" cx="1.5" cy="1.5" r="1.5" transform="translate(52 20)"/>
    <circle id="Ellipse_6" data-name="Ellipse 6" cx="1.5" cy="1.5" r="1.5" transform="translate(27 20)"/>
  </g>
</svg>
