<svg xmlns="http://www.w3.org/2000/svg" width="97.667" height="97.667" viewBox="0 0 97.667 97.667">
  <g id="efikasan" transform="translate(-1 -1)">
    <g id="Group_40" data-name="Group 40" transform="translate(1 13.602)">
      <path id="Path_220" data-name="Path 220" d="M76.989,37.631a4.5,4.5,0,0,1-.266-2.541,15.723,15.723,0,0,1-9.664-21.684l-.317-.677-4.334,4.334a4.6,4.6,0,0,1-7.85-3.25V9H32.505v4.866A4.6,4.6,0,0,1,24.7,17.1l-3.44-3.44L5.661,29.255,9.1,32.7a4.6,4.6,0,0,1-3.236,7.81H1V62.559H5.866a4.535,4.535,0,0,1,4.209,2.875A4.51,4.51,0,0,1,9.1,70.369l-3.44,3.44L21.255,89.4l3.44-3.44a4.6,4.6,0,0,1,7.81,3.236v4.866H54.559V89.2a4.6,4.6,0,0,1,7.81-3.236l3.44,3.44L81.4,73.81l-3.44-3.44a4.6,4.6,0,0,1,3.236-7.81h4.866V40.505H81.2a4.538,4.538,0,0,1-4.209-2.875ZM43.532,79.887A28.355,28.355,0,1,1,71.887,51.532,28.355,28.355,0,0,1,43.532,79.887Z" transform="translate(-1 -9)" fill="#f0bc5e"/>
    </g>
    <g id="Group_41" data-name="Group 41" transform="translate(7.301 1)">
      <path id="Path_221" data-name="Path 221" d="M55.3,12.44V9H52.151v3.151H49v4.726A4.732,4.732,0,0,0,53.726,21.6,1.578,1.578,0,0,1,55.3,23.177v1.575H53.726a1.578,1.578,0,0,1-1.575-1.575V21.6H49v1.575a4.719,4.719,0,0,0,3.151,4.436v3.44H55.3V27.9h3.151V23.177a4.732,4.732,0,0,0-4.726-4.726,1.578,1.578,0,0,1-1.575-1.575V15.3h1.575A1.578,1.578,0,0,1,55.3,16.876v1.575h3.151V16.876A4.719,4.719,0,0,0,55.3,12.44Z" transform="translate(20.312 3.602)"/>
      <path id="Path_222" data-name="Path 222" d="M11.3,22.463l3.151-3.151V7H5V28.764l3.151-3.151V10.151H11.3Z" transform="translate(-5 2.452)"/>
      <path id="Path_223" data-name="Path 223" d="M16.151,20.062V4.151H19.3V22.691a4.5,4.5,0,0,0,3.151.077V1H13V19.613l1.352-1.352Z" transform="translate(-0.398 -1)"/>
      <path id="Path_224" data-name="Path 224" d="M24.151,6.151H27.3v6.3h3.151V3H21v9.452h3.151Z" transform="translate(4.204 0.151)"/>
      <path id="Path_225" data-name="Path 225" d="M58.328,5A17.328,17.328,0,1,0,75.656,22.328,17.348,17.348,0,0,0,58.328,5Zm0,31.505A14.177,14.177,0,1,1,72.505,22.328,14.195,14.195,0,0,1,58.328,36.505Z" transform="translate(15.71 1.301)"/>
      <path id="Path_226" data-name="Path 226" d="M38.93,17A29.93,29.93,0,1,0,68.86,46.93,29.963,29.963,0,0,0,38.93,17Zm26.7,31.505a26.556,26.556,0,0,1-2.324,9.452H49.831a11.04,11.04,0,0,0-6.175-8.373V37.479a4.726,4.726,0,0,0-9.452,0V49.584a11.04,11.04,0,0,0-6.175,8.373H14.554a26.556,26.556,0,0,1-2.324-9.452h6.221V45.355H12.231a26.63,26.63,0,0,1,6.712-16.186l4.393,4.393,2.227-2.227-4.393-4.393a26.635,26.635,0,0,1,16.186-6.712v6.222h3.151V20.231a26.63,26.63,0,0,1,16.186,6.712L52.3,31.337l2.227,2.227,4.393-4.393a26.635,26.635,0,0,1,6.712,16.186H59.409v3.151h6.221Zm-25.124.126a9.908,9.908,0,0,0-3.151,0V37.479a1.575,1.575,0,0,1,3.151,0ZM38.93,51.656a7.891,7.891,0,0,1,7.717,6.3H31.213a7.891,7.891,0,0,1,7.717-6.3Zm0,22.054a26.761,26.761,0,0,1-22.678-12.6H61.608A26.761,26.761,0,0,1,38.93,73.71Z" transform="translate(-2.699 8.204)"/>
    </g>
  </g>
</svg>
