<svg width="97" height="97" viewBox="0 0 97 97" fill="none" xmlns="http://www.w3.org/2000/svg">
<path d="M71.2344 56.0781C57.8635 56.0781 46.9844 45.199 46.9844 31.8281C46.9844 18.4573 57.8635 7.57812 71.2344 7.57812C84.6052 7.57812 95.4844 18.4573 95.4844 31.8281C95.4844 45.199 84.6052 56.0781 71.2344 56.0781ZM71.2344 15.1562C62.0421 15.1562 54.5625 22.6359 54.5625 31.8281C54.5625 41.0204 62.0421 48.5 71.2344 48.5C80.4266 48.5 87.9062 41.0219 87.9062 31.8281C87.9062 22.6343 80.4266 15.1562 71.2344 15.1562Z" fill="#F0BC5E"/>
<path d="M15.1562 25.7656H43.9531V33.3438H15.1562V25.7656Z" fill="#F0BC5E"/>
<path d="M50.0156 81.8438H62.1406V87.9062H50.0156V81.8438Z" fill="#F0BC5E"/>
<path d="M27.2812 80.3281C36.4735 80.3281 43.9531 72.8485 43.9531 63.6562C43.9531 54.464 36.4735 46.9844 27.2812 46.9844C18.089 46.9844 10.6094 54.464 10.6094 63.6562C10.6094 72.8485 18.089 80.3281 27.2812 80.3281ZM13.73 65.1719H19.8562C20.4609 68.1364 22.8011 70.4766 25.7656 71.0813V77.2075C19.453 76.5057 14.4318 71.4845 13.73 65.1719ZM27.2812 59.1094C29.7881 59.1094 31.8281 61.1494 31.8281 63.6562C31.8281 66.1631 29.7881 68.2031 27.2812 68.2031C24.7744 68.2031 22.7344 66.1631 22.7344 63.6562C22.7344 61.1494 24.7744 59.1094 27.2812 59.1094ZM28.7969 77.2075V71.0813C31.7614 70.4766 34.1016 68.1364 34.7063 65.1719H40.8325C40.1307 71.4845 35.1095 76.5057 28.7969 77.2075ZM40.8325 62.1406H34.7063C34.1016 59.1761 31.7614 56.8359 28.7969 56.2312V50.105C35.1095 50.8068 40.1307 55.828 40.8325 62.1406ZM25.7656 50.105V56.2312C22.8011 56.8359 20.4609 59.1761 19.8562 62.1406H13.73C14.4318 55.828 19.453 50.8068 25.7656 50.105Z" fill="black"/>
<path d="M76.6891 59.8232C77.065 59.1609 77.2969 58.4076 77.2969 57.5938V55.2794C76.3072 55.5355 75.2993 55.7371 74.2656 55.8675V57.5938C74.2656 58.4304 73.5866 59.1094 72.75 59.1094H69.7188C68.8821 59.1094 68.2031 58.4304 68.2031 57.5938V55.8675C67.1695 55.7371 66.1616 55.5355 65.1719 55.2794V57.5938C65.1719 58.4076 65.4038 59.1609 65.7796 59.8232C64.508 60.6295 63.6562 62.0421 63.6562 63.6562V75.7812C63.6562 79.44 66.2646 82.5015 69.7188 83.2063V92.4531H12.125V84.9371L13.0586 85.8708L16.922 83.8838C17.995 84.4324 19.1272 84.8992 20.3003 85.2766L21.6295 89.4219H32.9345L34.2622 85.2782C35.4353 84.9008 36.5675 84.434 37.6405 83.8853L41.5039 85.8723L49.4973 77.8804L47.5088 74.0171C48.0574 72.9425 48.5243 71.8118 48.9016 70.6387L53.0469 69.308V58.003L48.9032 56.6753C48.5258 55.5037 48.059 54.3715 47.5103 53.297L49.4988 49.4336L41.5054 41.4402L37.6421 43.4287C36.566 42.8801 35.4353 42.4132 34.2637 42.0359L32.933 37.8906H21.628L20.3003 42.0343C19.1287 42.4117 17.9965 42.8785 16.922 43.4272L13.0586 41.4387L12.125 42.3738V4.54688H69.7188V7.65542C70.2219 7.62359 70.7221 7.57812 71.2344 7.57812C71.7467 7.57812 72.2468 7.62359 72.75 7.65542V1.51562H9.09375V45.4051L5.06522 49.4336L7.05372 53.297C6.50506 54.373 6.03825 55.5037 5.66086 56.6753L1.51562 58.0045V69.3095L5.65934 70.6372C6.03673 71.8103 6.50355 72.9425 7.0522 74.0155L5.0637 77.8789L9.09375 81.9074V95.4844H72.75V83.2063C76.2041 82.5015 78.8125 79.4415 78.8125 75.7812V63.6562C78.8125 62.0421 77.9607 60.6295 76.6891 59.8232ZM10.085 73.2623C9.35141 71.9498 8.76334 70.5235 8.33897 69.0231L8.11769 68.2395L4.54688 67.0982V60.2158L8.11769 59.073L8.33897 58.2894C8.76183 56.792 9.34989 55.3643 10.0865 54.0502L10.4836 53.3394L8.77092 50.0141L13.6391 45.1459L16.9644 46.8586L17.6752 46.4615C18.9893 45.7249 20.417 45.1368 21.9144 44.714L22.698 44.4927L23.8393 40.9219H30.7217L31.8645 44.4927L32.6481 44.714C34.1455 45.1368 35.5732 45.7249 36.8873 46.4615L37.5981 46.8586L40.9234 45.1459L45.7916 50.0141L44.0789 53.3394L44.476 54.0502C45.2126 55.3643 45.8007 56.792 46.2235 58.2894L46.4448 59.073L50.0156 60.2143V67.0967L46.4448 68.2395L46.2235 69.0231C45.7992 70.5235 45.2111 71.9498 44.4775 73.2623L44.0789 73.9716L45.7916 77.2984L40.9234 82.1651L37.5966 80.4539L36.8873 80.8525C35.5747 81.5861 34.1485 82.1742 32.6481 82.5985L31.8645 82.8198L30.7232 86.3906H23.8408L22.698 82.8198L21.9144 82.5985C20.414 82.1742 18.9877 81.5861 17.6752 80.8525L16.9659 80.4539L13.6391 82.1651L8.77092 77.2984L10.4836 73.9716L10.085 73.2623ZM75.7812 75.7812C75.7812 78.2881 73.7412 80.3281 71.2344 80.3281C68.7275 80.3281 66.6875 78.2881 66.6875 75.7812V63.6562C66.6875 62.8196 67.3665 62.1406 68.2031 62.1406H69.7188H72.75H74.2656C75.1022 62.1406 75.7812 62.8196 75.7812 63.6562V75.7812Z" fill="black"/>
<path d="M71.2344 13.6406C61.2055 13.6406 53.0469 21.7992 53.0469 31.8281C53.0469 41.857 61.2055 50.0156 71.2344 50.0156C81.2633 50.0156 89.4219 41.857 89.4219 31.8281C89.4219 21.7992 81.2633 13.6406 71.2344 13.6406ZM71.2344 46.9844C62.8772 46.9844 56.0781 40.1853 56.0781 31.8281C56.0781 23.471 62.8772 16.6719 71.2344 16.6719C79.5915 16.6719 86.3906 23.471 86.3906 31.8281C86.3906 40.1853 79.5915 46.9844 71.2344 46.9844Z" fill="black"/>
<path d="M66.6877 35.7475L63.2124 32.2722L61.0693 34.4153L66.6877 40.0337L81.3999 25.3216L79.2568 23.1785L66.6877 35.7475Z" fill="black"/>
<path d="M45.4688 7.57812H15.1562V22.7344H45.4688V7.57812ZM42.4375 19.7031H18.1875V10.6094H42.4375V19.7031Z" fill="black"/>
<path d="M15.1562 25.7656H18.1875V28.7969H15.1562V25.7656Z" fill="black"/>
<path d="M21.2188 25.7656H43.9531V28.7969H21.2188V25.7656Z" fill="black"/>
<path d="M15.1562 31.8281H43.9531V34.8594H15.1562V31.8281Z" fill="black"/>
<path d="M50.0156 86.3906H62.1406V89.4219H50.0156V86.3906Z" fill="black"/>
<path d="M50.0156 80.3281H62.1406V83.3594H50.0156V80.3281Z" fill="black"/>
</svg>
