<svg xmlns="http://www.w3.org/2000/svg" width="98.2" height="97.155" viewBox="0 0 98.2 97.155">
  <g id="lak" transform="translate(-1 -1)">
    <path id="Path_227" data-name="Path 227" d="M38.8,44.608a18.8,18.8,0,1,1,18.8-18.8A18.825,18.825,0,0,1,38.8,44.608Z" transform="translate(10.773 3.402)" fill="#f0bc5e"/>
    <path id="Path_228" data-name="Path 228" d="M99.2,51.144,82.485,38.608v6.268h-9.5a28.193,28.193,0,1,0-46.846,0H7.268V48.01H28.614a28.344,28.344,0,0,0,8.1,6.268H1v3.134H43.309v3.134H40.175v6.268H37.041v3.134h3.134v18.8a9.4,9.4,0,1,0,18.8,0v-18.8h3.134V66.815H58.979V60.546H55.845V57.412H82.485v6.268ZM55.845,88.753a6.268,6.268,0,0,1-12.536,0v-18.8H55.845ZM43.309,66.815V63.681H55.845v3.134Zm9.4-6.268H46.443V57.412h6.268Zm-3.134-6.268a25.163,25.163,0,1,1,19.525-9.4H59.948A18.687,18.687,0,0,1,49.576,48.01H85.617V44.876l8.357,6.268-8.355,6.268V54.278Z" transform="translate(0 0)"/>
    <path id="Path_229" data-name="Path 229" d="M33.348,11a12.526,12.526,0,0,0-3.726.564l.931,2.993a9.4,9.4,0,0,1,2.8-.423Z" transform="translate(16.229 5.67)"/>
    <path id="Path_230" data-name="Path 230" d="M31.573,14.865l-1.658-2.659a12.537,12.537,0,0,0-2.335,19.418l2.239-2.192a9.4,9.4,0,0,1,1.753-14.567Z" transform="translate(13.041 6.354)"/>
    <path id="Path_231" data-name="Path 231" d="M1,29H4.134v3.134H1Z" transform="translate(0 15.876)"/>
    <path id="Path_232" data-name="Path 232" d="M51.944,17.073l3.1-.489c-.15-.956-.343-1.913-.572-2.844l-3.043.749C51.633,15.334,51.807,16.2,51.944,17.073Z" transform="translate(28.592 7.224)"/>
    <path id="Path_233" data-name="Path 233" d="M52.03,19.911l0,.343,3.134.039,0-.382q0-1.272-.091-2.518l-3.126.227q.082,1.135.083,2.291Z" transform="translate(28.888 9.295)"/>
    <path id="Path_234" data-name="Path 234" d="M54.268,12.941c-.309-.915-.66-1.826-1.044-2.706L50.35,11.484c.348.8.666,1.628.948,2.46Z" transform="translate(27.982 5.236)"/>
    <path id="Path_235" data-name="Path 235" d="M13.136,20.254l0-.343q0-1.156.083-2.291l-3.126-.227Q10,18.641,10,19.911l0,.382Z" transform="translate(5.103 9.295)"/>
    <path id="Path_236" data-name="Path 236" d="M15.067,11.485l-2.874-1.249c-.382.881-.733,1.791-1.044,2.706l2.969,1C14.4,13.113,14.72,12.284,15.067,11.485Z" transform="translate(5.755 5.237)"/>
    <path id="Path_237" data-name="Path 237" d="M13.883,14.489,10.84,13.74c-.229.931-.422,1.888-.572,2.844l3.1.489C13.5,16.2,13.675,15.334,13.883,14.489Z" transform="translate(5.255 7.224)"/>
  </g>
</svg>
