<svg width="108" height="108" viewBox="0 0 108 108" fill="none" xmlns="http://www.w3.org/2000/svg">
<path d="M93.6719 41.5781C89.9148 41.5781 86.8594 38.5227 86.8594 34.7656C86.8594 31.0085 89.9148 27.9531 93.6719 27.9531C97.429 27.9531 100.484 31.0085 100.484 34.7656C100.484 38.5227 97.429 41.5781 93.6719 41.5781Z" fill="#F0BC5E"/>
<path d="M93.551 21.1406C89.879 21.1406 86.4268 22.5713 83.8312 25.1668L21.4355 87.5625L40.875 107.002L103.271 44.6063C105.866 42.0107 107.297 38.5585 107.297 34.8865C107.297 27.3076 101.13 21.1406 93.551 21.1406ZM33.0645 94.375L81.75 45.6895L89.5605 53.5L86.8594 56.2012L81.251 50.5928L78.8428 53.001L84.4512 58.6094L81.75 61.3105L77.8448 57.4053L75.4365 59.8135L79.3418 63.7188L76.6406 66.4199L71.0322 60.8115L68.624 63.2197L74.2324 68.8281L71.5313 71.5293L67.626 67.624L65.2178 70.0322L69.123 73.9375L66.4219 76.6387L60.8135 71.0303L58.4053 73.4385L64.0137 79.0469L61.3125 81.748L57.4072 77.8428L54.999 80.251L58.9043 84.1562L56.2031 86.8574L50.5948 81.249L48.1865 83.6572L53.7949 89.2656L51.0938 91.9668L47.1885 88.0615L44.7803 90.4697L48.6855 94.375L45.9844 97.0762L40.376 91.4678L37.9678 93.876L43.5762 99.4844L40.875 102.186L33.0645 94.375ZM100.862 42.1981L91.9688 51.0918L81.75 40.873L30.6563 91.9668L26.252 87.5625L86.2395 27.575C88.1929 25.6232 90.7885 24.5469 93.551 24.5469C99.2513 24.5469 103.891 29.1862 103.891 34.8865C103.891 37.6473 102.816 40.2463 100.862 42.1981Z" fill="black"/>
<path d="M36.9697 66.626L62.9152 28.6259L64.5842 20.2754L71.5313 13.3301C72.6298 12.2316 73.2344 10.7703 73.2344 9.21876C73.2344 7.66721 72.6298 6.20593 71.5313 5.10742L68.8318 2.40626C66.6365 0.210934 62.801 0.210934 60.6074 2.40626L53.6621 9.3516L45.3099 11.0241L7.55678 36.7651L0.998047 43.2813L30.6563 72.9395L36.9697 66.626ZM61.1677 19.9978L60.5682 22.9936L50.84 13.3914L53.9414 12.7715L61.1677 19.9978ZM63.0156 4.81448C63.9234 3.90331 65.5107 3.90331 66.4219 4.81448L69.1213 7.51564C69.5778 7.97207 69.8281 8.57498 69.8281 9.21876C69.8281 9.86254 69.5778 10.4654 69.123 10.9219L63.0156 17.0293L56.9082 10.9219L63.0156 4.81448ZM46.6588 14.2259L46.807 14.197L59.7678 26.9926L59.7099 27.2804L35.517 62.765L11.1725 38.4205L46.6588 14.2259ZM8.51564 40.5801L33.3574 65.4219L30.6563 68.123L5.81448 43.2813L8.51564 40.5801Z" fill="black"/>
<path d="M34.0625 57.6114L16.3262 39.875L23.8438 32.3574L41.5801 50.0938L34.0625 57.6114Z" fill="#F0BC5E"/>
<path d="M40.8751 43.2813C39.3202 43.2813 37.8606 42.6767 36.7621 41.5781L32.3595 37.1739C31.261 36.0736 30.6564 34.6141 30.6564 33.0625C30.6564 31.511 31.261 30.0497 32.3595 28.9512L40.17 21.1406C42.3637 18.9453 46.1991 18.9453 48.3944 21.1406L52.797 25.5449C53.8955 26.6451 54.5001 28.1047 54.5001 29.6563C54.5001 31.2078 53.8955 32.6691 52.797 33.7676L44.9865 41.5781C43.8897 42.6767 42.4301 43.2813 40.8751 43.2813Z" fill="#F0BC5E"/>
</svg>
