<svg xmlns="http://www.w3.org/2000/svg" width="94" height="94" viewBox="0 0 94 94">
  <g id="materijal" transform="translate(-1 -1)">
    <path id="Path_241" data-name="Path 241" d="M1,1V95H95V1ZM72.258,12.5,63.789,4.032H80.727ZM48,12.5,39.531,4.032H56.469Zm-24.258,0L15.273,4.032H32.211ZM15.534,8.581,8.581,15.534l-2.4-2.4,6.953-6.953Zm67.337-2.4,6.953,6.953-2.4,2.4L80.466,8.581ZM4.032,4.032h6.953L4.032,10.985Zm0,11.241L12.5,23.742,4.032,32.211Zm0,24.258L12.5,48,4.032,56.469Zm0,24.258L12.5,72.258,4.032,80.727Zm0,28.179V85.015l6.953,6.953Zm2.144-9.1,2.4-2.4,6.953,6.953-2.4,2.4Zm9.1,9.1L23.742,83.5l8.469,8.469Zm24.258,0L48,83.5l8.469,8.469Zm9.541-11.685L48,81.355l-1.072-1.072L35.871,91.34,24.814,80.283l-1.072,1.072L22.67,80.283l-4.993,4.993-6.953-6.953,4.993-4.993-1.072-1.072,1.072-1.072L4.66,60.129,15.717,49.072,14.645,48l1.072-1.072L4.66,35.871,15.717,24.814l-1.072-1.072,1.072-1.072-4.993-4.993,6.953-6.953,4.993,4.993,1.072-1.072,1.072,1.072L35.871,4.66,46.928,15.717,48,14.645l1.072,1.072L60.129,4.66,71.186,15.717l1.072-1.072,1.072,1.072,4.993-4.993,6.953,6.953L80.283,22.67l1.072,1.072-1.072,1.072L91.34,35.871,80.283,46.928,81.355,48l-1.072,1.072L91.34,60.129,80.283,71.186l1.072,1.072L80.283,73.33l4.993,4.993-6.953,6.953L73.33,80.283l-1.072,1.072-1.072-1.072L60.129,91.34ZM63.789,91.968,72.258,83.5l8.469,8.469Zm16.677-4.548,6.953-6.953,2.4,2.4-6.953,6.953Zm11.5,4.548H85.015l6.953-6.953Zm0-11.241L83.5,72.258l8.469-8.469Zm0-24.258L83.5,48l8.469-8.469Zm0-24.258L83.5,23.742l8.469-8.469Zm0-21.226L85.015,4.032h6.953Z"/>
    <path id="Path_242" data-name="Path 242" d="M78.742,78.742H9V9H78.742Z" transform="translate(4.129 4.129)" fill="#f0bc5e"/>
    <path id="Path_243" data-name="Path 243" d="M58.419,34.161V31.129H55.387v-9.1h-9.1V19H43.258v3.032H40.226V19H37.194v3.032H34.161V19H31.129v3.032h-9.1v9.1H19v3.032h3.032v3.032H19v3.032h3.032v3.032H19V46.29h3.032v9.1h9.1v3.032h3.032V55.387h3.032v3.032h3.032V55.387h3.032v3.032H46.29V55.387h9.1v-9.1h3.032V43.258H55.387V40.226h3.032V37.194H55.387V34.161Zm-6.065,3.032H49.323v3.032h3.032v3.032H49.323V46.29h3.032v6.065H46.29V49.323H43.258v3.032H40.226V49.323H37.194v3.032H34.161V49.323H31.129v3.032H25.065V46.29H28.1V43.258H25.065V40.226H28.1V37.194H25.065V34.161H28.1V31.129H25.065V25.065h6.065V28.1h3.032V25.065h3.032V28.1h3.032V25.065h3.032V28.1H46.29V25.065h6.065v6.065H49.323v3.032h3.032Z" transform="translate(9.29 9.29)"/>
  </g>
</svg>
