<svg xmlns="http://www.w3.org/2000/svg" width="99.3" height="99.3" viewBox="0 0 99.3 99.3">
  <g id="otpornost" transform="translate(-1 -1)">
    <g id="Group_43" data-name="Group 43" transform="translate(25.015 21.063)">
      <path id="Path_257" data-name="Path 257" d="M66.429,53.154a5.164,5.164,0,0,0,.794-1.715l.032-.317c0-6.752-3.612-23.811-5.164-30.833L61.827,19.1l-1.22-.062a42.47,42.47,0,0,1-18.217-5.1l-.761-.412-.762.412a42.515,42.515,0,0,1-18.217,5.1l-1.219.062-.264,1.192C19.615,27.307,16,44.347,15.994,50.978l.029.306c.577,2.976,7.657,9.895,21.843,18.05a7.532,7.532,0,0,0,7.529,0c2.551-1.467,4.957-2.942,7.183-4.4A19.235,19.235,0,0,1,66.429,53.154Z" transform="translate(-15.994 -13.527)" fill="#f0bc5e"/>
    </g>
    <g id="Group_44" data-name="Group 44" transform="translate(1 1)">
      <path id="Path_258" data-name="Path 258" d="M58.813,50.458a6.256,6.256,0,0,0-4.8-6.069V41H50.8v3.391a6.245,6.245,0,0,0-.529,12l3.245,1.083a3.052,3.052,0,0,1-.964,5.947h-.3A3.055,3.055,0,0,1,49.2,60.372V58.618H46v1.754a6.256,6.256,0,0,0,4.8,6.069v3.389h3.2V66.438a6.244,6.244,0,0,0,.529-12l-3.245-1.083a3.051,3.051,0,0,1,.964-5.947h.3a3.055,3.055,0,0,1,3.053,3.051v.152Z" transform="translate(26.073 23.065)"/>
      <path id="Path_259" data-name="Path 259" d="M76.044,54.236c0-.088.021-.181.021-.269,0-7.824-4.06-26.659-5.8-34.391a5.166,5.166,0,0,0-5.069-4.047,36.422,36.422,0,0,1-20.27-6.137L44.032,8.8l-.889.593a36.418,36.418,0,0,1-20.27,6.137A5.166,5.166,0,0,0,17.8,19.575C16.06,27.308,12,46.143,12,53.967,12,62.1,27.709,72.348,37.073,77.731a13.945,13.945,0,0,0,13.881.022c.368-.213.793-.461,1.214-.708a20.817,20.817,0,1,0,23.875-22.81ZM49.359,74.975a10.91,10.91,0,0,1-10.689-.022C24.195,66.632,15.2,58.592,15.2,53.967c0-7.712,4.382-27.734,5.726-33.687a1.98,1.98,0,0,1,1.944-1.549,39.591,39.591,0,0,0,21.159-6.1,39.591,39.591,0,0,0,21.159,6.1,1.98,1.98,0,0,1,1.944,1.549c1.344,5.953,5.726,25.975,5.726,33.687A20.832,20.832,0,0,0,52.114,73.348c-1.015.612-1.964,1.172-2.755,1.627Zm23.5,17.43A17.618,17.618,0,1,1,90.479,74.788,17.639,17.639,0,0,1,72.861,92.405Z" transform="translate(5.618 3.691)"/>
      <path id="Path_260" data-name="Path 260" d="M4.2,50.65A46.454,46.454,0,0,1,95.466,38.406l3.091-.841A49.656,49.656,0,1,0,50.65,100.3V97.1A46.5,46.5,0,0,1,4.2,50.65Z" transform="translate(-1 -1)"/>
      <path id="Path_261" data-name="Path 261" d="M8.2,48.244a40.04,40.04,0,1,1,80.081,0V52.11l9.14-9.14L95.16,40.7l-3.831,3.831A43.244,43.244,0,1,0,48.244,91.487v-3.2A40.086,40.086,0,0,1,8.2,48.244Z" transform="translate(1.406 1.406)"/>
      <path id="Path_262" data-name="Path 262" d="M34,57h3.2v3.2H34Z" transform="translate(18.853 32.69)"/>
      <path id="Path_263" data-name="Path 263" d="M31,18h3.2v6.406H31Z" transform="translate(17.048 9.227)"/>
      <path id="Path_264" data-name="Path 264" d="M31,24h3.2V57.634H31Z" transform="translate(17.048 12.837)"/>
    </g>
  </g>
</svg>
