<svg id="patent" xmlns="http://www.w3.org/2000/svg" width="97" height="97" viewBox="0 0 97 97">
  <g id="Group_2" data-name="Group 2">
    <path id="Path_54" data-name="Path 54" d="M390.938,287.645h-7.05v-3.129h5.036a17.192,17.192,0,0,1,7.5-7.5V272h3.129v7.028l-.939.41a14.07,14.07,0,0,0-7.269,7.269Z" transform="translate(-308.813 -218.806)" fill="#333"/>
    <path id="Path_55" data-name="Path 55" d="M97,0H0V75.1H51.629V97h5.445l5.507-6.882L68.088,97h5.445V75.1H97ZM93.871,71.968H73.532V70.4H70.4V93.871H69.59l-5.445-6.807V78.226H61.016v8.838l-5.445,6.807h-.814V70.4H51.629v1.565H3.129V3.129H93.871Z" fill="#333"/>
    <path id="Path_56" data-name="Path 56" d="M113.355,42.631V75.806h3.129V40.617l-.939-.41a14.069,14.069,0,0,1-7.269-7.269l-.41-.939H40.617l-.41.939a14.069,14.069,0,0,1-7.269,7.269l-.939.41V85.963l.939.41a14.069,14.069,0,0,1,7.269,7.269l.41.939H75.828V91.452h-33.2a17.192,17.192,0,0,0-7.5-7.5V42.631a17.192,17.192,0,0,0,7.5-7.5h63.222A17.192,17.192,0,0,0,113.355,42.631Z" transform="translate(-25.742 -25.742)" fill="#333"/>
    <path id="Path_57" data-name="Path 57" d="M90.015,80c-13.331,0-18.4,9.833-18.61,10.252l-.349.7.35.7c.208.419,5.277,10.252,18.608,10.252s18.4-9.833,18.61-10.252l.349-.7-.35-.7C108.415,89.833,103.346,80,90.015,80Zm7.823,10.952a7.823,7.823,0,1,1-7.823-7.823A7.831,7.831,0,0,1,97.837,90.952Zm-23.217,0a17.3,17.3,0,0,1,5.906-5.449,10.86,10.86,0,0,0,.022,10.925A17,17,0,0,1,74.62,90.956ZM99.5,96.4a10.857,10.857,0,0,0-.022-10.923,17.006,17.006,0,0,1,5.93,5.476A17.343,17.343,0,0,1,99.5,96.4Z" transform="translate(-57.16 -64.355)" fill="#333"/>
    <rect id="Rectangle_2" data-name="Rectangle 2" width="29" height="3" transform="translate(55 19)" fill="#333"/>
    <rect id="Rectangle_3" data-name="Rectangle 3" width="29" height="3" transform="translate(55 25)" fill="#333"/>
    <rect id="Rectangle_4" data-name="Rectangle 4" width="23" height="3" transform="translate(55 31)" fill="#333"/>
    <rect id="Rectangle_5" data-name="Rectangle 5" width="3" height="3" transform="translate(81 31)" fill="#333"/>
  </g>
  <ellipse id="Ellipse_1" data-name="Ellipse 1" cx="17.5" cy="17" rx="17.5" ry="17" transform="translate(45 41)" fill="#ffa64d"/>
  <path id="Path_58" data-name="Path 58" d="M274.952,261.9A10.952,10.952,0,1,1,285.9,250.952,10.966,10.966,0,0,1,274.952,261.9Zm0-18.774a7.823,7.823,0,1,0,7.823,7.823A7.831,7.831,0,0,0,274.952,243.129Z" transform="translate(-212.371 -193.065)" fill="#333"/>
</svg>
