<svg xmlns="http://www.w3.org/2000/svg" width="95.867" height="95.867" viewBox="0 0 95.867 95.867">
  <g id="povrsina" transform="translate(-1 -1)">
    <path id="Path_198" data-name="Path 198" d="M32.031,30,31,45.462l3.092,3.092,3.092-3.092L36.154,30Z" transform="translate(16.387 15.841)" fill="#f0bc5e"/>
    <path id="Path_199" data-name="Path 199" d="M16.031,14,15,29.462l3.092,3.092,3.092-3.092L20.154,14Z" transform="translate(7.647 7.101)" fill="#f0bc5e"/>
    <path id="Path_200" data-name="Path 200" d="M78.312,1V26.18a5.11,5.11,0,0,0-2.069-.441h-.634a5.157,5.157,0,0,0-4.3,2.3L63.689,39.473a10.8,10.8,0,0,1-4.883,3.994,10.828,10.828,0,1,0-15.733.966A13.863,13.863,0,0,0,38.652,45.8L36.563,42.32V30.057A19.706,19.706,0,0,0,48.2,21.381L55.9,8.866A5.161,5.161,0,0,0,51.5,1h-.634a5.157,5.157,0,0,0-4.3,2.3L38.949,14.734a10.8,10.8,0,0,1-4.883,3.994,10.828,10.828,0,1,0-15.733.966A13.829,13.829,0,0,0,7.278,28.3l-5.9,14.754A5.213,5.213,0,0,0,1,45.009v.213a5.257,5.257,0,0,0,10.109,2.022L16.462,34.4v9.628l-7.428,20.8a5.184,5.184,0,0,0-.3,1.75v.354A5.2,5.2,0,0,0,18.8,68.753L26.663,47.78l1.815,2.947a12.777,12.777,0,0,1,1.882,6.457l-4.244,10.61a5.25,5.25,0,0,0-.376,1.954v.213a5.257,5.257,0,0,0,10.109,2.022L41.2,59.139v9.63l-7.428,20.8a5.173,5.173,0,0,0-.3,1.747v.354a5.2,5.2,0,0,0,10.068,1.825L51.4,72.52l3.716,6.033v12.9a5.412,5.412,0,1,0,10.824,0V76.933a7.746,7.746,0,0,0-1.1-3.978L61.3,67.06V54.8a19.712,19.712,0,0,0,11.634-8.676l5.375-8.733V96.867H96.867V1Zm15.462,9.277H87.589V4.092h6.185ZM87.589,13.37v6.185H81.4V13.37ZM84.5,22.647v6.185H81.4V22.647Zm3.092,9.277V38.11H81.4V31.925ZM81.4,41.2H84.5v6.185H81.4Zm0,9.277h6.185v6.185H81.4Zm0,9.277H84.5v6.185H81.4Zm0,9.277h6.185v6.185H81.4Zm0,9.277H84.5V84.5H81.4ZM87.589,84.5V78.312h6.185V84.5Zm3.092-9.277V69.034h3.092v6.185Zm-3.092-9.277V59.757h6.185v6.185Zm3.092-9.277V50.48h3.092v6.185Zm-3.092-9.277V41.2h6.185v6.185Zm3.092-9.277V31.925h3.092V38.11Zm-3.092-9.277V22.647h6.185v6.185Zm3.092-9.277V13.37h3.092v6.185ZM84.5,4.092v6.185H81.4V4.092ZM42.748,36.563a7.731,7.731,0,1,1,7.731,7.731A7.74,7.74,0,0,1,42.748,36.563Zm-24.74-24.74a7.731,7.731,0,1,1,7.731,7.731A7.74,7.74,0,0,1,18.009,11.824ZM28.15,44.295H24.67L15.9,67.666a2.107,2.107,0,0,1-4.081-.738v-.354a2.09,2.09,0,0,1,.124-.71l7.607-21.3V28.832H15.431L8.255,46.056a2.165,2.165,0,0,1-4.162-.833v-.213a2.139,2.139,0,0,1,.156-.8l5.9-14.754a10.771,10.771,0,0,1,10.051-6.8h9.744a13.886,13.886,0,0,0,11.578-6.2L49.145,5.014a2.071,2.071,0,0,1,1.723-.922H51.5a2.07,2.07,0,0,1,1.764,3.153l-7.7,12.515a16.6,16.6,0,0,1-10.85,7.555l-1.243.249V43.177l2.6,4.334A13.83,13.83,0,0,0,32.5,52.064a15.742,15.742,0,0,0-1.384-2.958ZM78.006,31.987,70.3,44.5a16.6,16.6,0,0,1-10.85,7.555l-1.243.249V67.918l3.977,6.627a4.645,4.645,0,0,1,.662,2.387V91.455a2.319,2.319,0,1,1-4.639,0v-12.9a3.1,3.1,0,0,0-.459-1.622l-4.861-7.9H49.41L40.644,92.406a2.107,2.107,0,0,1-4.081-.738v-.354a2.1,2.1,0,0,1,.124-.71l7.607-21.3V53.572H40.171L32.995,70.8a2.165,2.165,0,0,1-4.162-.833v-.213a2.145,2.145,0,0,1,.156-.8l5.9-14.754a10.771,10.771,0,0,1,10.051-6.8h9.744a13.886,13.886,0,0,0,11.578-6.2l7.623-11.436a2.071,2.071,0,0,1,1.723-.922h.634a2.071,2.071,0,0,1,1.764,3.154Zm3.4,55.6h6.185v6.185H81.4Zm9.277,6.185V87.589h3.092v6.185Z" transform="translate(0 0)"/>
  </g>
</svg>
