<svg xmlns="http://www.w3.org/2000/svg" width="100" height="100.045" viewBox="0 0 100 100.045">
  <g id="puni" transform="translate(-319 -2034)">
    <g id="strech" transform="translate(319 2034)">
      <path id="Path_169" data-name="Path 169" d="M44.422,98.826A57.475,57.475,0,0,0,59,101.045a57.5,57.5,0,0,0,14.58-2.219,50,50,0,1,0-29.159,0ZM59,29.261A21.739,21.739,0,1,1,37.261,51,21.764,21.764,0,0,1,59,29.261Z" transform="translate(-9 -1)" fill="#f0bc5e"/>
      <g id="Group_21" data-name="Group 21" transform="translate(8.696 8.696)">
        <path id="Path_172" data-name="Path 172" d="M21,36.913A23.913,23.913,0,1,0,44.913,13,23.941,23.941,0,0,0,21,36.913Zm43.478,0A19.565,19.565,0,1,1,44.913,17.348,19.588,19.588,0,0,1,64.478,36.913Z" transform="translate(-3.609 4.391)"/>
        <path id="Path_173" data-name="Path 173" d="M54.3,9.348V5A41.35,41.35,0,0,0,13,46.3h4.348A37,37,0,0,1,54.3,9.348Z" transform="translate(-13 -5)"/>
        <path id="Path_174" data-name="Path 174" d="M13.888,30.957,18.129,30a36.136,36.136,0,0,1-.691-4.107l-4.322.48A40.72,40.72,0,0,0,13.888,30.957Z" transform="translate(-12.864 19.523)"/>
      </g>
    </g>
    <path id="Path_240" data-name="Path 240" d="M68.436,39.659,63.879,35.1l-2.81,2.81,7.367,7.367,19.29-19.29-2.81-2.81Z" transform="translate(294.058 2049.714)"/>
  </g>
</svg>
