<svg xmlns="http://www.w3.org/2000/svg" width="102.695" height="103" viewBox="0 0 102.695 103">
  <g id="recycle" transform="translate(-2 -0.819)">
    <g id="Group_4" data-name="Group 4" transform="translate(7.051 58.364)">
      <g id="Group_3" data-name="Group 3">
        <path id="Path_77" data-name="Path 77" d="M90.86,55.2l-6.734-1.684A40.9,40.9,0,0,1,45.253,80.455,42.054,42.054,0,0,1,5,51.179l6.414-2.054a35.329,35.329,0,0,0,33.839,24.6A34.091,34.091,0,0,0,77.392,51.835l-6.734-1.684L85.809,35Z" transform="translate(-5 -35)" fill="#f0bc5e"/>
      </g>
    </g>
    <g id="Group_5" data-name="Group 5" transform="translate(2 19.643)">
      <path id="Path_78" data-name="Path 78" d="M52.189,12.273l-.022-.032A43.059,43.059,0,0,0,47.607,12,40.9,40.9,0,0,0,8.734,38.936L2,37.253l5.051,20.2L22.2,42.3,15.468,40.62A34.091,34.091,0,0,1,47.607,18.734a36,36,0,0,1,10.086,1.433l-.04-.057a20.227,20.227,0,0,1-5.463-7.837Z" transform="translate(-2 -12)" fill="#f0bc5e"/>
    </g>
    <g id="Group_6" data-name="Group 6" transform="translate(27.253 0.819)">
      <path id="Path_79" data-name="Path 79" d="M37.2,25A20.2,20.2,0,1,0,57.4,45.2,20.225,20.225,0,0,0,37.2,25ZM51.76,36.785H46.11a23.062,23.062,0,0,0-3.921-7.663A16.9,16.9,0,0,1,51.76,36.785ZM54.038,45.2a16.811,16.811,0,0,1-.776,5.051H46.9a31.03,31.03,0,0,0,.4-5.051,30.843,30.843,0,0,0-.4-5.051h6.36A16.759,16.759,0,0,1,54.038,45.2ZM37.209,61.634a18.287,18.287,0,0,1-5.365-8.014H42.576a18.1,18.1,0,0,1-5.367,8.014ZM30.943,50.253a26.8,26.8,0,0,1-.475-5.051,27.089,27.089,0,0,1,.47-5.051H43.462a26.8,26.8,0,0,1,.475,5.051,27.089,27.089,0,0,1-.47,5.051ZM20.367,45.2a16.811,16.811,0,0,1,.776-5.051H27.5a31.834,31.834,0,0,0,0,10.1h-6.36A16.759,16.759,0,0,1,20.367,45.2ZM37.2,28.771a18.3,18.3,0,0,1,5.365,8.014H31.83A18.083,18.083,0,0,1,37.2,28.771Zm-4.982.35a23.028,23.028,0,0,0-3.921,7.663h-5.65A16.9,16.9,0,0,1,32.216,29.121Zm-9.571,24.5h5.65a23.062,23.062,0,0,0,3.921,7.663A16.9,16.9,0,0,1,22.645,53.62Zm19.544,7.663A23.028,23.028,0,0,0,46.11,53.62h5.65A16.9,16.9,0,0,1,42.189,61.283Z" transform="translate(-17 15.709)"/>
      <path id="Path_80" data-name="Path 80" d="M74.659,18.356a18.456,18.456,0,0,0-10.988,7.379v-.766A21.815,21.815,0,0,0,45.382,3.383L30,.819V12.631A21.815,21.815,0,0,0,48.288,34.217l12.015,2V53.313h3.367V44.552l10.14-2.34A15.083,15.083,0,0,0,85.557,27.447v-11.6ZM33.367,12.631V4.8L44.83,6.706A18.459,18.459,0,0,1,60.3,24.971V30.73L42.975,13.4l-2.381,2.381L57.081,32.269,48.84,30.9A18.459,18.459,0,0,1,33.367,12.631ZM82.189,27.447a11.727,11.727,0,0,1-9.135,11.482l-5.726,1.322,9.317-9.317-2.381-2.381L63.671,39.148V36.4A15.084,15.084,0,0,1,75.415,21.638l6.775-1.562Z" transform="translate(-8.114 -0.819)"/>
    </g>
  </g>
</svg>
