<svg xmlns="http://www.w3.org/2000/svg" xmlns:xlink="http://www.w3.org/1999/xlink" width="108" height="108" viewBox="0 0 108 108">
  <defs>
    <clipPath id="clip-path">
      <rect id="Rectangle_17" data-name="Rectangle 17" width="108" height="108" transform="translate(581 2089)" fill="#fff"/>
    </clipPath>
  </defs>
  <g id="resistance" transform="translate(-581 -2089)" clip-path="url(#clip-path)">
    <g id="resistance-2" data-name="resistance" transform="translate(-97.516 -63)">
      <g id="strech" transform="translate(680.516 2168)">
        <path id="Path_169" data-name="Path 169" d="M36.015,75.61A43.835,43.835,0,0,0,47.134,77.3a43.856,43.856,0,0,0,11.12-1.692,38.135,38.135,0,1,0-22.239,0ZM47.134,22.554a16.58,16.58,0,1,1-16.58,16.58A16.6,16.6,0,0,1,47.134,22.554Z" transform="translate(-9 -1)" fill="#f0bc5e"/>
        <g id="Group_21" data-name="Group 21" transform="translate(6.632 6.632)">
          <path id="Path_171" data-name="Path 171" d="M25,28.606A11.606,11.606,0,1,0,36.606,17,11.62,11.62,0,0,0,25,28.606Zm19.9,0a8.29,8.29,0,1,1-8.29-8.29A8.3,8.3,0,0,1,44.9,28.606Z" transform="translate(-5.104 2.896)"/>
          <path id="Path_172" data-name="Path 172" d="M21,31.238A18.238,18.238,0,1,0,39.238,13,18.26,18.26,0,0,0,21,31.238Zm33.16,0A14.922,14.922,0,1,1,39.238,16.316,14.939,14.939,0,0,1,54.16,31.238Z" transform="translate(-7.736 0.264)"/>
          <path id="Path_173" data-name="Path 173" d="M44.5,8.316V5A31.537,31.537,0,0,0,13,36.5h3.316A28.218,28.218,0,0,1,44.5,8.316Z" transform="translate(-13 -5)"/>
          <path id="Path_174" data-name="Path 174" d="M13.7,29.755l3.235-.733a27.56,27.56,0,0,1-.527-3.132l-3.3.366A31.056,31.056,0,0,0,13.7,29.755Z" transform="translate(-12.924 8.746)"/>
        </g>
      </g>
      <g id="Group_30" data-name="Group 30" transform="translate(748.853 2227.346)">
        <path id="Path_178" data-name="Path 178" d="M60.68,49.713l2.1,3.052A6.472,6.472,0,0,1,57.448,62.9H36.465a6.472,6.472,0,0,1-5.331-10.131l3.624-5.278h.011A9.214,9.214,0,0,1,37.418,47c2.236,0,5.066,1.77,8.181,3.444,2.777,1.494,5.776,2.914,8.775,2.914q6.359,0,6.359-3.179a2.245,2.245,0,0,0-.053-.466Z" transform="translate(-30 -47)" fill="#f0bc5e"/>
      </g>
      <g id="Group_31" data-name="Group 31" transform="translate(765.809 2191.315)">
        <path id="Path_179" data-name="Path 179" d="M49.179,19.359a3.179,3.179,0,1,1,3.179-3.179A3.183,3.183,0,0,1,49.179,19.359Z" transform="translate(-46 -13)" fill="#f0bc5e"/>
      </g>
      <g id="Group_32" data-name="Group 32" transform="translate(757.331 2186.016)">
        <path id="Path_180" data-name="Path 180" d="M41.179,14.359a3.179,3.179,0,1,1,3.179-3.179A3.183,3.183,0,0,1,41.179,14.359Z" transform="translate(-38 -8)" fill="#f0bc5e"/>
      </g>
      <g id="Group_33" data-name="Group 33" transform="translate(763.69 2178.598)">
        <path id="Path_181" data-name="Path 181" d="M47.179,7.359a3.179,3.179,0,1,1,3.179-3.179A3.183,3.183,0,0,1,47.179,7.359Z" transform="translate(-44 -1)" fill="#f0bc5e"/>
      </g>
      <g id="Group_34" data-name="Group 34" transform="translate(777.466 2190.255)">
        <path id="Path_182" data-name="Path 182" d="M60.179,18.359a3.179,3.179,0,1,1,3.179-3.179A3.183,3.183,0,0,1,60.179,18.359Z" transform="translate(-57 -12)" fill="#f0bc5e"/>
      </g>
      <path id="Path_192" data-name="Path 192" d="M63.707,53.716,53.374,38.686V27.359a2.122,2.122,0,0,0,2.12-2.12V23.12A2.122,2.122,0,0,0,53.374,21H40.657a2.122,2.122,0,0,0-2.12,2.12v2.12a2.122,2.122,0,0,0,2.12,2.12V38.686L30.325,53.716a7.529,7.529,0,0,0,6.2,11.794H57.5a7.529,7.529,0,0,0,6.2-11.794Zm-23.05-30.6H53.374v2.12H40.657ZM57.5,63.39H36.528a5.409,5.409,0,0,1-4.457-8.474L42.777,39.345V27.359h8.478v2.12H47.016V31.6h4.239v2.12h-2.12v2.12h2.12v2.12H47.016v2.12h4.741l10.2,14.841A5.409,5.409,0,0,1,57.5,63.39Z" transform="translate(718.793 2178.793)"/>
    </g>
  </g>
</svg>
