<svg xmlns="http://www.w3.org/2000/svg" width="66.239" height="102.35" viewBox="0 0 66.239 102.35">
  <g id="ruka" transform="translate(-87.5)">
    <path id="Path_277" data-name="Path 277" d="M96.5,405.461h46.223L140.205,384H99.017Z" transform="translate(-7.143 -304.761)" fill="#f0bc5e"/>
    <path id="Path_278" data-name="Path 278" d="M146.248,26.413a7.513,7.513,0,0,0-5.3,2.187l-7.016,6.17V6.6a6.623,6.623,0,0,0-6.6-6.6,6.524,6.524,0,0,0-4.952,2.291,6.5,6.5,0,0,0-9.9,0,6.5,6.5,0,0,0-9.9,0A6.524,6.524,0,0,0,97.611,0a6.623,6.623,0,0,0-6.6,6.6V72.533L87.5,102.35h49.937l-3.508-29.818V68.158l18.654-29.529a7.415,7.415,0,0,0,1.156-4V33.9A7.5,7.5,0,0,0,146.248,26.413ZM97.611,3.3a3.311,3.311,0,0,1,3.3,3.3V33.016h3.3V6.6a3.3,3.3,0,1,1,6.6,0V33.016h3.3V6.6a3.3,3.3,0,0,1,6.6,0V33.016h3.3V6.6a3.3,3.3,0,0,1,6.6,0v30.6l-13.268,11.06a18.139,18.139,0,0,0-6.541,13.949V72.636H94.289L94.31,6.6A3.311,3.311,0,0,1,97.611,3.3Zm-6.4,95.747,1.94-16.508h30.87v-3.3H93.546l.392-3.3H131.02l.392,3.3h-4.086v3.3h4.457l1.94,16.508Zm59.223-64.423a4.24,4.24,0,0,1-.64,2.229l-19.17,30.334v5.448H114.119V62.215A14.791,14.791,0,0,1,119.464,50.8L143.3,30.953a4.188,4.188,0,0,1,7.14,2.971v.7Z" transform="translate(0 0)" fill="#333"/>
  </g>
</svg>
