<svg xmlns="http://www.w3.org/2000/svg" width="97" height="97" viewBox="0 0 97 97">
  <g id="strech" transform="translate(-1 -1)">
    <path id="Path_169" data-name="Path 169" d="M34.492,71.4H55.477a35.985,35.985,0,1,0-20.985,0ZM44.984,21.339A15.645,15.645,0,1,1,29.339,36.984,15.663,15.663,0,0,1,44.984,21.339Z" transform="translate(4.516)" fill="#f0bc5e"/>
    <g id="Group_21" data-name="Group 21" transform="translate(1 7.258)">
      <path id="Path_170" data-name="Path 170" d="M93.306,45H5.694A4.7,4.7,0,0,0,1,49.694V68.468a4.7,4.7,0,0,0,4.694,4.694H93.306A4.7,4.7,0,0,0,98,68.468V49.694A4.7,4.7,0,0,0,93.306,45ZM4.129,68.468V49.694a1.566,1.566,0,0,1,1.565-1.565H71.4l-1.954,2.6L72.577,54.9l-3.129,4.171,3.129,4.173-3.127,4.177,1.957,2.611H5.694A1.566,1.566,0,0,1,4.129,68.468Zm90.742,0a1.566,1.566,0,0,1-1.565,1.565H75.316L73.357,67.42l3.131-4.179L73.359,59.07,76.488,54.9,73.36,50.729l1.954-2.6H93.306a1.566,1.566,0,0,1,1.565,1.565Z" transform="translate(-1 17.581)"/>
      <path id="Path_171" data-name="Path 171" d="M25,27.952A10.952,10.952,0,1,0,35.952,17,10.965,10.965,0,0,0,25,27.952Zm18.774,0a7.823,7.823,0,1,1-7.823-7.823A7.831,7.831,0,0,1,43.774,27.952Z" transform="translate(12.548 1.774)"/>
      <path id="Path_172" data-name="Path 172" d="M21,30.21A17.21,17.21,0,1,0,38.21,13,17.23,17.23,0,0,0,21,30.21Zm31.29,0A14.081,14.081,0,1,1,38.21,16.129,14.1,14.1,0,0,1,52.29,30.21Z" transform="translate(10.29 -0.484)"/>
      <path id="Path_173" data-name="Path 173" d="M42.726,8.129V5A29.759,29.759,0,0,0,13,34.726h3.129A26.627,26.627,0,0,1,42.726,8.129Z" transform="translate(5.774 -5)"/>
      <path id="Path_174" data-name="Path 174" d="M13.671,29.537l3.052-.692a26.006,26.006,0,0,1-.5-2.955l-3.11.346A29.305,29.305,0,0,0,13.671,29.537Z" transform="translate(5.84 6.793)"/>
      <path id="Path_175" data-name="Path 175" d="M13,49h3.129v3.129H13Z" transform="translate(5.774 19.839)"/>
      <path id="Path_176" data-name="Path 176" d="M9,49h3.129v3.129H9Z" transform="translate(3.516 19.839)"/>
      <path id="Path_177" data-name="Path 177" d="M5,49H8.129v3.129H5Z" transform="translate(1.258 19.839)"/>
    </g>
  </g>
</svg>
