<svg xmlns="http://www.w3.org/2000/svg" width="91" height="98.307" viewBox="0 0 91 98.307">
  <g id="temp" transform="translate(-910 -1855)">
    <g id="Ellipse_7" data-name="Ellipse 7" transform="translate(953 1905)" fill="#f0bc5e" stroke="#1e1e1e" stroke-width="3">
      <circle cx="24" cy="24" r="24" stroke="none"/>
      <circle cx="24" cy="24" r="22.5" fill="none"/>
    </g>
    <path id="Path_265" data-name="Path 265" d="M68.436,39.659,63.879,35.1l-2.81,2.81,7.367,7.367,19.29-19.29-2.81-2.81Z" transform="translate(902.931 1894.822)"/>
    <g id="celsius" transform="translate(909.001 1854.007)">
      <g id="Group_45" data-name="Group 45" transform="translate(10.519 7.346)">
        <path id="Path_266" data-name="Path 266" d="M14.917,87.442a8.285,8.285,0,0,1-1.871-.216,7.908,7.908,0,0,1-2.878-14.02V9.756a4.756,4.756,0,1,1,9.513,0V73.208a7.909,7.909,0,0,1-4.764,14.234Z" transform="translate(-7.003 -5)" fill="#f0bc5e"/>
      </g>
      <g id="Group_46" data-name="Group 46" transform="translate(0.999 0.993)">
        <path id="Path_268" data-name="Path 268" d="M29,22.677a6.342,6.342,0,1,0,12.684,0H38.513a3.171,3.171,0,1,1-6.342,0V16.335a3.171,3.171,0,1,1,6.342,0h3.171a6.342,6.342,0,1,0-12.684,0Z" transform="translate(15.395 4.276)"/>
        <path id="Path_269" data-name="Path 269" d="M27.756,15.513A4.756,4.756,0,1,0,23,10.756,4.762,4.762,0,0,0,27.756,15.513Zm0-6.342a1.585,1.585,0,1,1-1.585,1.585A1.588,1.588,0,0,1,27.756,9.171Z" transform="translate(11.882 1.938)"/>
        <path id="Path_270" data-name="Path 270" d="M46.979,42.215A20.611,20.611,0,1,0,29.456,10.805,11.095,11.095,0,0,0,7.343,12.1V68.432a17.284,17.284,0,0,0-6.171,15.9A17.563,17.563,0,0,0,16.41,99.188a17.852,17.852,0,0,0,1.99.113A17.435,17.435,0,0,0,35.881,81.862a17.281,17.281,0,0,0-6.342-13.43V32.537a20.6,20.6,0,0,0,17.44,9.678Zm0-38.051A17.44,17.44,0,1,1,29.539,21.6,17.461,17.461,0,0,1,46.979,4.164ZM27,70.466a14.262,14.262,0,0,1-10.233,25.57A14.353,14.353,0,0,1,4.314,83.9,14.167,14.167,0,0,1,9.882,70.466l.631-.474V12.1a7.927,7.927,0,0,1,15.855,0v57.89Z" transform="translate(-0.999 -0.993)"/>
      </g>
    </g>
  </g>
</svg>
