<svg xmlns="http://www.w3.org/2000/svg" xmlns:xlink="http://www.w3.org/1999/xlink" width="107" height="107" viewBox="0 0 107 107">
  <defs>
    <clipPath id="clip-path">
      <rect id="Rectangle_16" data-name="Rectangle 16" width="107" height="107" transform="translate(2429 2391)" fill="#fff"/>
    </clipPath>
  </defs>
  <g id="thick" transform="translate(-2429 -2391)" clip-path="url(#clip-path)">
    <g id="thick-2" data-name="thick" transform="translate(2428.222 2398)">
      <g id="Group_11" data-name="Group 11" transform="translate(2.722 38.111)">
        <g id="Group_10" data-name="Group 10" transform="translate(0 0)">
          <path id="Path_119" data-name="Path 119" d="M36.444,41.778H2V28H36.444Z" transform="translate(-2 -28)" fill="#f0bc5e"/>
        </g>
      </g>
      <path id="Path_120" data-name="Path 120" d="M107.778,34.667H97.444V32.944a5.173,5.173,0,0,0-5.167-5.167H80.222V26.056a5.173,5.173,0,0,0-5.167-5.167H61.278a5.173,5.173,0,0,0-5.167,5.167v1.722h-15.5a5.109,5.109,0,0,0-1.722.317V14H25.111V31.222H21.667V14H7.889v6.889H6.167A5.173,5.173,0,0,0,1,26.056V57.717L17.456,76h4.211V58.778H35.444V76H39.22l.308-.122a15.319,15.319,0,0,0,9.644-13.656H92.278a5.173,5.173,0,0,0,5.167-5.167V55.333h10.333ZM94,48.444H90.556a3.444,3.444,0,0,1,0-6.889H94ZM76.778,26.056v1.722H69.889V24.333h5.167A1.724,1.724,0,0,1,76.778,26.056Zm-17.222,0a1.724,1.724,0,0,1,1.722-1.722h5.167v3.444H59.556Zm-31-8.611h6.889V31.222H28.556ZM6.167,24.333h5.167V17.444h6.889V31.222H4.444V26.056A1.724,1.724,0,0,1,6.167,24.333ZM18.222,71.7,6.589,58.778H18.222ZM4.444,55.333V34.667h31V55.333ZM38.889,72.4v-10.5a5.108,5.108,0,0,0,1.722.317h5.12A11.892,11.892,0,0,1,38.889,72.4ZM92.278,58.778H40.611a1.723,1.723,0,0,1-1.722-1.722V32.944a1.724,1.724,0,0,1,1.722-1.722H92.278A1.724,1.724,0,0,1,94,32.944v5.167H90.556a6.889,6.889,0,0,0,0,13.778H94v5.167A1.723,1.723,0,0,1,92.278,58.778Zm12.056-6.889H97.444V38.111h6.889Z"/>
      <g id="Group_13" data-name="Group 13" transform="translate(42.333 34.667)">
        <g id="Group_12" data-name="Group 12">
          <path id="Path_121" data-name="Path 121" d="M57.722,46.667H30.167A5.173,5.173,0,0,1,25,41.5V31.167A5.173,5.173,0,0,1,30.167,26H57.722a5.173,5.173,0,0,1,5.167,5.167V41.5A5.173,5.173,0,0,1,57.722,46.667Z" transform="translate(-25 -26)" fill="#f0bc5e"/>
        </g>
      </g>
    </g>
  </g>
</svg>
