<svg xmlns="http://www.w3.org/2000/svg" width="100.4" height="100.021" viewBox="0 0 100.4 100.021">
  <g id="time" transform="translate(-1 -1)">
    <path id="Path_201" data-name="Path 201" d="M80.348,81.968H71.131a40.413,40.413,0,0,0,2.73-51.819H86.826A14.574,14.574,0,1,0,86.826,1H77.11A14.592,14.592,0,0,0,62.535,15.574v4.28A40.481,40.481,0,0,0,11.811,81.968H10.716v3.239H41.484V81.968H16.413a37.228,37.228,0,0,1,46.122-58.23v6.411h7.151a37.218,37.218,0,0,1-28.2,61.535H13.955v3.239H80.348v6.1l20.961-12.576L80.348,75.869ZM65.774,26.91V15.574A11.348,11.348,0,0,1,77.11,4.239h9.716a11.335,11.335,0,0,1,0,22.671ZM83.587,81.589l11.426,6.856L83.587,95.3V91.684H57.342a40.541,40.541,0,0,0,10.409-6.477H83.587Z"/>
    <path id="Path_202" data-name="Path 202" d="M3,51H6.239v3.239H3Z" transform="translate(1.239 30.968)"/>
    <path id="Path_203" data-name="Path 203" d="M1,57H4.239v3.239H1Z" transform="translate(0 34.684)"/>
    <path id="Path_204" data-name="Path 204" d="M5,57H8.239v3.239H5Z" transform="translate(2.477 34.684)"/>
    <path id="Path_205" data-name="Path 205" d="M37.768,15A30.768,30.768,0,1,0,68.535,45.768,30.8,30.8,0,0,0,37.768,15Zm0,53.439A22.671,22.671,0,1,1,60.439,45.768,22.671,22.671,0,0,1,37.768,68.439Z" transform="translate(3.716 8.671)" fill="#f0bc5e"/>
    <path id="Path_206" data-name="Path 206" d="M35.29,19a24.29,24.29,0,1,0,24.29,24.29A24.318,24.318,0,0,0,35.29,19ZM56.259,44.91a20.932,20.932,0,0,1-5,12.059l-4.52-4.52-2.29,2.29,4.52,4.52a20.936,20.936,0,0,1-12.059,5V57.865H33.671v6.395a20.931,20.931,0,0,1-12.059-5l4.52-4.52-2.29-2.29-4.52,4.52a20.936,20.936,0,0,1-5-12.059h6.395V41.671H14.321a20.932,20.932,0,0,1,5-12.059l4.52,4.52,2.29-2.29-4.52-4.52a20.936,20.936,0,0,1,12.059-5v6.395H36.91V22.321a20.932,20.932,0,0,1,12.059,5l-4.52,4.52,2.29,2.29,4.52-4.52a20.936,20.936,0,0,1,5,12.059H49.865V44.91Z" transform="translate(6.194 11.148)"/>
    <path id="Path_207" data-name="Path 207" d="M32.716,38.335a4.851,4.851,0,0,0-3.239-4.56V27H26.239v6.775a4.846,4.846,0,0,0,1.619,9.418,4.779,4.779,0,0,0,2.081-.487l3.252,3.252,2.29-2.29-3.252-3.252A4.779,4.779,0,0,0,32.716,38.335Zm-4.858,1.619a1.619,1.619,0,1,1,1.619-1.619A1.622,1.622,0,0,1,27.858,39.955Z" transform="translate(13.626 16.103)"/>
    <path id="Path_208" data-name="Path 208" d="M46,6H62.194V20.574H46Z" transform="translate(27.871 3.097)" fill="#f0bc5e"/>
    <path id="Path_209" data-name="Path 209" d="M46,5H62.194V8.239H46Z" transform="translate(27.871 2.477)"/>
    <path id="Path_210" data-name="Path 210" d="M46,9H62.194v3.239H46Z" transform="translate(27.871 4.955)"/>
    <path id="Path_211" data-name="Path 211" d="M54,13h3.239v3.239H54Z" transform="translate(32.826 7.432)"/>
    <path id="Path_212" data-name="Path 212" d="M50,13h3.239v3.239H50Z" transform="translate(30.348 7.432)"/>
    <path id="Path_213" data-name="Path 213" d="M46,13h3.239v3.239H46Z" transform="translate(27.871 7.432)"/>
  </g>
</svg>
