<svg xmlns="http://www.w3.org/2000/svg" width="113.569" height="106.242" viewBox="0 0 113.569 106.242">
  <g id="trace" transform="translate(0 -32)">
    <path id="Path_1" data-name="Path 1" d="M104.41,46.654H102.5v3.664h1.909a5.5,5.5,0,0,1,5.5,5.5V107.15a9.067,9.067,0,0,0-5.5-1.879H9.159a5.5,5.5,0,1,1,0-10.991h9.159V50.318H55.03V46.654H18.318V32H9.159A9.17,9.17,0,0,0,0,41.159V99.775a9.17,9.17,0,0,0,9.159,9.159H73.27v20.149a9.17,9.17,0,0,0,9.159,9.159H97.083V123.588h7.327a9.17,9.17,0,0,0,9.159-9.159V55.813A9.17,9.17,0,0,0,104.41,46.654ZM3.664,41.159a5.5,5.5,0,0,1,5.5-5.5h5.5V90.616h-5.5a9.111,9.111,0,0,0-5.5,1.835Zm89.756,93.42H82.429a5.5,5.5,0,1,1,0-10.991H93.42Zm10.991-14.654H82.429a9.067,9.067,0,0,0-5.5,1.879v-12.87H104.41a5.5,5.5,0,0,1,0,10.991Zm0,0"/>
    <path id="Path_2" data-name="Path 2" d="M120,184h3.664v12.822H120Zm0,0" transform="translate(-92.524 -117.197)"/>
    <path id="Path_3" data-name="Path 3" d="M103.327,142.654a7.327,7.327,0,1,1,7.327-7.327A7.327,7.327,0,0,1,103.327,142.654Zm0,0" transform="translate(-74.019 -74.019)" fill="#f0bc5e"/>
    <path id="Path_4" data-name="Path 4" d="M312,288h7.327v3.664H312Zm0,0" transform="translate(-240.561 -197.384)"/>
    <path id="Path_5" data-name="Path 5" d="M125.6,230.952a7.377,7.377,0,0,1-4.032-2.59l2.876-2.268a3.7,3.7,0,0,0,2.019,1.3Zm4.774-.458-1.526-3.333a3.7,3.7,0,0,0,1.736-1.655l3.256,1.678a7.366,7.366,0,0,1-3.467,3.31Zm30.712-6.666h-3.664v-3.664h3.664Zm-7.327,0h-3.664v-3.664h3.664Zm-30.094,0H120v-3.664h3.664Zm21.981-.98a7.35,7.35,0,0,1-3.139-3.623l3.4-1.362a3.674,3.674,0,0,0,1.571,1.811Zm-10.991-.065h-3.664v-3.664h3.664ZM123.664,216.5H120v-3.664h3.664Zm10.991-1.045h-3.664v-3.664h3.664Zm10.991-.524h-3.664v-3.664h3.664Zm-10.991-6.8h-3.664v-.786a7.338,7.338,0,0,1,.982-3.667l3.169,1.839a3.646,3.646,0,0,0-.487,1.828Zm10.991-.524h-3.664v-.262a3.618,3.618,0,0,0-.678-2.123l2.982-2.128a7.265,7.265,0,0,1,1.36,4.253Zm-8.69-3.664-1.359-3.4a7.4,7.4,0,0,1,4.79-.225l-1.035,3.513a3.709,3.709,0,0,0-2.4.114Zm0,0" transform="translate(-92.524 -129.548)"/>
    <path id="Path_6" data-name="Path 6" d="M448,176h3.664v3.664H448Zm0,0" transform="translate(-345.421 -111.028)"/>
    <path id="Path_7" data-name="Path 7" d="M448,208h3.664v3.664H448Zm0,0" transform="translate(-345.421 -135.701)"/>
    <path id="Path_8" data-name="Path 8" d="M448,240h3.664v21.981H448Zm0,0" transform="translate(-345.421 -160.374)"/>
    <path id="Path_10" data-name="Path 10" d="M282.318,68.635a18.318,18.318,0,1,1,18.318-18.318A18.318,18.318,0,0,1,282.318,68.635Zm0-32.972a14.654,14.654,0,1,0,14.654,14.654A14.654,14.654,0,0,0,282.318,35.664Zm0,0" transform="translate(-203.552 0)"/>
    <path id="Path_11" data-name="Path 11" d="M306.991,122.991A11,11,0,0,1,296,112h3.664a7.334,7.334,0,0,0,7.327,7.327Zm0,0" transform="translate(-228.225 -61.682)"/>
  </g>
</svg>
