<svg id="vlaga" xmlns="http://www.w3.org/2000/svg" width="98.467" height="98.467" viewBox="0 0 98.467 98.467">
  <path id="Path_193" data-name="Path 193" d="M49.233,388.429c-31.978,0-49.233-9-49.233-17.47,0-2.322,1.2-5.8,6.94-9.173l1.614,2.736c-2.454,1.442-5.378,3.732-5.378,6.437,0,6.761,18.915,14.294,46.057,14.294S95.29,377.72,95.29,370.959c0-2.7-2.924-4.995-5.378-6.438l1.614-2.736c5.736,3.378,6.94,6.853,6.94,9.175C98.467,379.429,81.211,388.429,49.233,388.429Z" transform="translate(0 -289.962)" fill="#3f3a34"/>
  <path id="Path_194" data-name="Path 194" d="M153.589,10.816l-15.129,29A21.669,21.669,0,0,0,136,49.844h0a21.682,21.682,0,0,0,21.683,21.683h1.1a21.682,21.682,0,0,0,21.682-21.683h0a21.682,21.682,0,0,0-2.458-10.029l-15.13-29A5.238,5.238,0,0,0,158.234,8h0A5.238,5.238,0,0,0,153.589,10.816Z" transform="translate(-109.001 -6.412)" fill="#ffcb57"/>
  <g id="Group_35" data-name="Group 35" transform="translate(25.411)">
    <path id="Path_195" data-name="Path 195" d="M152.375,66.7h-1.1A23.27,23.27,0,0,1,130.64,32.669l15.129-29a6.828,6.828,0,0,1,12.108,0l15.129,29A23.27,23.27,0,0,1,152.375,66.7Zm-.553-63.527a3.64,3.64,0,0,0-3.237,1.963l-15.129,29A20.092,20.092,0,0,0,151.27,63.527h1.1a20.092,20.092,0,0,0,17.814-29.389l-15.129-29A3.64,3.64,0,0,0,151.823,3.176Z" transform="translate(-128)" fill="#3f3a34"/>
    <rect id="Rectangle_18" data-name="Rectangle 18" width="3.583" height="3.177" transform="matrix(-0.463, 0.887, -0.887, -0.463, 20.936, 18.206)" fill="#3f3a34"/>
    <path id="Path_196" data-name="Path 196" d="M172.278,152.913a16.919,16.919,0,0,1-10.36-24.1l6.532-12.521,2.816,1.471-6.532,12.521a13.741,13.741,0,0,0,8.416,19.569Z" transform="translate(-153.647 -93.209)" fill="#3f3a34"/>
  </g>
  <path id="Path_197" data-name="Path 197" d="M87.7,310.737c-19.247,0-39.7-5.009-39.7-14.294,0-4.944,5.951-9.127,16.755-11.779l.758,3.086c-8.71,2.136-14.336,5.549-14.336,8.694,0,5.258,15,11.117,36.528,11.117s36.528-5.859,36.528-11.117c0-3.145-5.627-6.558-14.335-8.694l.758-3.086c10.8,2.652,16.754,6.835,16.754,11.779C127.409,305.728,106.951,310.737,87.7,310.737Z" transform="translate(-38.471 -228.152)" fill="#e56565"/>
</svg>
