<svg width="116" height="115" viewBox="0 0 116 115" fill="none" xmlns="http://www.w3.org/2000/svg">
<path d="M61.7419 50.0806H74.8387V64.9193H61.7419V50.0806Z" fill="#F0BC5E"/>
<path d="M41.1614 50.0806H54.2582V64.9193H41.1614V50.0806Z" fill="#F0BC5E"/>
<path d="M93.5483 59.3547H104.774V90.887H93.5483V59.3547Z" fill="#F0BC5E"/>
<path d="M11.2258 59.3547H22.4516V90.887H11.2258V59.3547Z" fill="#F0BC5E"/>
<path d="M112.258 103.871V51.9356H82.3226V33.3872H61.7419V37.0969H78.5806V89.0324H65.4839V70.484H50.5161V89.0324H37.4194V37.0969H54.0881V33.3872H33.6774V51.9356H3.74194V103.871H0V115H116V103.871H112.258ZM108.516 103.871H104.774V89.0324H93.5484V103.871H89.8064V55.6453H108.516V103.871ZM101.032 103.871H97.2903V92.742H101.032V103.871ZM29.9355 100.161H86.0645V103.871H29.9355V100.161ZM86.0645 55.6453V96.4517H82.3226V55.6453H86.0645ZM54.2581 74.1937H61.7419V89.0324H54.2581V74.1937ZM78.5806 92.742V96.4517H37.4194V92.742H78.5806ZM33.6774 96.4517H29.9355V55.6453H33.6774V96.4517ZM7.48387 55.6453H26.1935V103.871H22.4516V89.0324H11.2258V103.871H7.48387V55.6453ZM18.7097 103.871H14.9677V92.742H18.7097V103.871ZM112.258 111.29H3.74194V107.581H112.258V111.29Z" fill="black"/>
<path d="M41.1614 48.2258H54.2582V51.9355H41.1614V48.2258Z" fill="black"/>
<path d="M61.7419 48.2258H74.8387V51.9355H61.7419V48.2258Z" fill="black"/>
<path d="M41.1614 55.6453H54.2582V59.3549H41.1614V55.6453Z" fill="black"/>
<path d="M61.7419 55.6453H74.8387V59.3549H61.7419V55.6453Z" fill="black"/>
<path d="M41.1614 63.0645H54.2582V66.7741H41.1614V63.0645Z" fill="black"/>
<path d="M61.7419 63.0645H74.8387V66.7741H61.7419V63.0645Z" fill="black"/>
<path d="M11.2258 59.3547H14.9678V63.0644H11.2258V59.3547Z" fill="black"/>
<path d="M18.7097 59.3547H22.4517V63.0644H18.7097V59.3547Z" fill="black"/>
<path d="M11.2258 66.7742H14.9678V70.4838H11.2258V66.7742Z" fill="black"/>
<path d="M18.7097 66.7742H22.4517V70.4838H18.7097V66.7742Z" fill="black"/>
<path d="M11.2258 74.1936H14.9678V77.9033H11.2258V74.1936Z" fill="black"/>
<path d="M18.7097 74.1936H22.4517V77.9033H18.7097V74.1936Z" fill="black"/>
<path d="M11.2258 81.6128H14.9678V85.3225H11.2258V81.6128Z" fill="black"/>
<path d="M18.7097 81.6128H22.4517V85.3225H18.7097V81.6128Z" fill="black"/>
<path d="M101.032 59.3547H104.774V63.0644H101.032V59.3547Z" fill="black"/>
<path d="M93.5483 59.3547H97.2903V63.0644H93.5483V59.3547Z" fill="black"/>
<path d="M101.032 66.7742H104.774V70.4838H101.032V66.7742Z" fill="black"/>
<path d="M93.5483 66.7742H97.2903V70.4838H93.5483V66.7742Z" fill="black"/>
<path d="M101.032 74.1936H104.774V77.9033H101.032V74.1936Z" fill="black"/>
<path d="M93.5483 74.1936H97.2903V77.9033H93.5483V74.1936Z" fill="black"/>
<path d="M101.032 81.6128H104.774V85.3225H101.032V81.6128Z" fill="black"/>
<path d="M93.5483 81.6128H97.2903V85.3225H93.5483V81.6128Z" fill="black"/>
<path d="M58 40.8064C56.161 40.8064 54.4709 39.812 53.592 38.2117L44.8603 22.3432C43.6644 20.1696 43.0322 17.7115 43.0322 15.2372V14.8387C43.0322 6.65677 49.7469 0 58 0C66.2531 0 72.9677 6.65677 72.9677 14.8387V15.2372C72.9677 17.7115 72.3355 20.1696 71.1397 22.3432L62.4079 38.2117C61.529 39.812 59.839 40.8064 58 40.8064Z" fill="#F0BC5E"/>
<path d="M58 22.2581C53.8725 22.2581 50.5161 18.9307 50.5161 14.8388C50.5161 10.7469 53.8725 7.41943 58 7.41943C62.1274 7.41943 65.4839 10.7469 65.4839 14.8388C65.4839 18.9307 62.1274 22.2581 58 22.2581ZM58 11.1291C55.9363 11.1291 54.258 12.7929 54.258 14.8388C54.258 16.8847 55.9363 18.5485 58 18.5485C60.0637 18.5485 61.7419 16.8847 61.7419 14.8388C61.7419 12.7929 60.0637 11.1291 58 11.1291Z" fill="black"/>
</svg>
