<svg width="48" height="48" viewBox="0 0 48 48" fill="none" xmlns="http://www.w3.org/2000/svg">
<path d="M33 22.5H15C13.3432 22.5 12 21.1567 12 19.5V4.5C12 2.84325 13.3432 1.5 15 1.5H33C34.6567 1.5 36 2.84325 36 4.5V19.5C36 21.1567 34.6567 22.5 33 22.5Z" fill="#F0BC5E"/>
<path d="M23.1 19.5133L23.928 19.9273C24.3502 20.138 24.8228 20.2498 25.2945 20.2498C26.1113 20.2498 26.8793 19.9318 27.456 19.3543L28.5 18.311C28.9838 17.8273 29.25 17.1845 29.25 16.4998C29.25 15.815 28.9838 15.1723 28.5 14.6893L27.1777 13.3663C26.7795 12.9688 26.2507 12.7498 25.6882 12.7498H25.5885C24.786 12.7498 24.0637 13.196 23.7037 13.9145C23.601 14.1215 23.3925 14.2498 23.1615 14.2498H23.0618C22.8998 14.2498 22.7475 14.1868 22.6328 14.0728L21.9285 13.367C21.813 13.2515 21.75 13.1 21.75 12.9373V12.8383C21.75 12.6065 21.8783 12.3988 22.0853 12.2953C22.8038 11.9368 23.25 11.2145 23.25 10.4113V10.3123C23.25 9.74901 23.0303 9.21951 22.6328 8.82276L21.3105 7.49976C20.3422 6.53301 18.6578 6.53226 17.6895 7.49976L16.6448 8.54376C16.0763 9.11301 15.75 9.90126 15.75 10.7765C15.75 11.1928 15.8332 11.5978 15.9975 11.9803C17.3977 15.248 19.9207 17.9233 23.1 19.5133ZM17.7053 9.60426L18.75 8.56101C18.951 8.36001 19.2165 8.24976 19.5 8.24976C19.7835 8.24976 20.049 8.36001 20.25 8.56026L21.5723 9.88326C21.687 9.99801 21.75 10.1495 21.75 10.3123V10.4113C21.75 10.643 21.6217 10.8508 21.4147 10.9543C20.6962 11.3128 20.25 12.035 20.25 12.8383V12.9373C20.25 13.5005 20.4697 14.03 20.8672 14.4268L21.5715 15.1325C21.9705 15.5308 22.4993 15.7498 23.0618 15.7498H23.1615C23.964 15.7498 24.6863 15.3035 25.0463 14.585C25.149 14.378 25.3575 14.2498 25.5885 14.2498H25.6882C25.8502 14.2498 26.0025 14.3128 26.1173 14.4275L27.4395 15.7498C27.6405 15.95 27.75 16.2163 27.75 16.4998C27.75 16.7833 27.6405 17.0495 27.4395 17.2498L26.3948 18.2938C25.9313 18.7573 25.1865 18.8788 24.5978 18.5855L23.7698 18.1715C20.907 16.7398 18.636 14.3315 17.3752 11.3893C17.2927 11.1943 17.25 10.988 17.25 10.7053C17.25 10.2958 17.4165 9.89376 17.7053 9.60426Z" fill="black"/>
<path d="M43.5 18.75H36V20.25H43.5C44.7405 20.25 45.75 21.2595 45.75 22.5V37.5C45.75 38.7405 44.7405 39.75 43.5 39.75H25.5C24.2595 39.75 23.25 38.7405 23.25 37.5V22.5H21.75V37.5C21.75 39.5677 23.4323 41.25 25.5 41.25H43.5C45.5677 41.25 47.25 39.5677 47.25 37.5V22.5C47.25 20.4323 45.5677 18.75 43.5 18.75Z" fill="black"/>
<path d="M27.75 9.75H29.25C29.25 8.0955 27.9045 6.75 26.25 6.75V8.25C27.0773 8.25 27.75 8.92275 27.75 9.75Z" fill="black"/>
<path d="M30.75 9.75H32.25C32.25 6.44175 29.5582 3.75 26.25 3.75V5.25C28.7318 5.25 30.75 7.26825 30.75 9.75Z" fill="black"/>
<path d="M24.75 38.25H44.25V24.75H24.75V38.25ZM34.5 33.75C35.4075 33.75 36.2903 33.5295 37.0868 33.132L41.4285 36.75H27.5715L31.9132 33.132C32.7097 33.5295 33.5925 33.75 34.5 33.75ZM38.382 32.259C38.532 32.124 38.676 31.9807 38.8125 31.8292L42.75 27.4545V35.8988L38.382 32.259ZM37.698 30.8258C36.8835 31.731 35.718 32.25 34.5 32.25C33.282 32.25 32.1165 31.731 31.302 30.8258L27.1837 26.25H41.8162L37.698 30.8258ZM30.1875 31.8292C30.324 31.9807 30.4673 32.124 30.6173 32.259L26.25 35.8988V27.4545L30.1875 31.8292Z" fill="black"/>
<path d="M15.3113 35.7488C16.9298 34.6733 18 32.835 18 30.75C18 27.4418 15.3082 24.75 12 24.75C8.69175 24.75 6 27.4418 6 30.75C6 32.835 7.07025 34.6733 8.68875 35.7488C4.0965 37.1663 0.75 41.4487 0.75 46.5V47.25H23.25V46.5C23.25 41.4487 19.9035 37.1663 15.3113 35.7488ZM12 36.75C12.606 36.75 13.1978 36.81 13.7738 36.9158L12 38.6895L10.2262 36.9158C10.8022 36.81 11.394 36.75 12 36.75ZM10.9395 39.75L9.7095 40.98L7.833 37.6965C8.07375 37.5818 8.319 37.476 8.57025 37.3807L10.9395 39.75ZM12 40.8105L13.5195 42.33L12 44.9888L10.4805 42.33L12 40.8105ZM14.2905 40.98L13.0605 39.75L15.4298 37.3807C15.681 37.4752 15.9262 37.5818 16.167 37.6965L14.2905 40.98ZM7.5 30.75C7.5 28.2682 9.51825 26.25 12 26.25C14.4818 26.25 16.5 28.2682 16.5 30.75C16.5 33.2318 14.4818 35.25 12 35.25C9.51825 35.25 7.5 33.2318 7.5 30.75ZM6.53175 38.4427L10.7078 45.75H6V42.75H4.5V45.75H2.2785C2.511 42.7118 4.14675 40.0665 6.53175 38.4427ZM19.5 45.75V42.75H18V45.75H13.2922L17.4683 38.4427C19.8533 40.0665 21.489 42.7125 21.7215 45.75H19.5Z" fill="black"/>
</svg>
