<svg width="1440" height="703" viewBox="0 0 1440 703" fill="none" xmlns="http://www.w3.org/2000/svg">
<g opacity="0.1">
<path d="M202 1.00012L202 701" stroke="white"/>
<path d="M733 1L733 701" stroke="white"/>
<path d="M1265 1L1265 701" stroke="white"/>
<path d="M0 513.143C443.76 514.882 861.463 582.991 1227 701.922" stroke="white" stroke-miterlimit="10"/>
<path d="M1440 584.5C1018.95 428.712 527.959 337.871 0 332.941" stroke="white" stroke-miterlimit="10"/>
<path d="M0.5 134.163C521.33 138.621 1011.26 220.481 1440 361.668" stroke="white" stroke-miterlimit="10"/>
<path d="M874.5 1.4165C1072.16 38.3348 1261.39 86.8561 1440 145.674" stroke="white" stroke-miterlimit="10"/>
</g>
<circle r="4.59562" transform="matrix(-1 0 0 1 200.865 517.705)" fill="white"/>
<circle r="4.59562" transform="matrix(-1 0 0 1 202.014 338.475)" fill="white"/>
<circle r="4.59562" transform="matrix(-1 0 0 1 202.014 140.864)" fill="white"/>
<circle r="4.59562" transform="matrix(-1 0 0 1 1264.75 524.598)" fill="white"/>
<circle r="4.59562" transform="matrix(-1 0 0 1 1264.75 307.455)" fill="white"/>
<circle r="4.59562" transform="matrix(-1 0 0 1 1264.75 91.4611)" fill="white"/>
</svg>
