<svg width="48" height="48" viewBox="0 0 48 48" fill="none" xmlns="http://www.w3.org/2000/svg">
<path d="M25.5484 20.9033H30.9677V27.0969H25.5484V20.9033Z" fill="#F0BC5E"/>
<path d="M17.0323 20.9033H22.4516V27.0969H17.0323V20.9033Z" fill="#F0BC5E"/>
<path d="M38.7097 24.7744H43.3548V37.9357H38.7097V24.7744Z" fill="#F0BC5E"/>
<path d="M4.64516 24.7744H9.29032V37.9357H4.64516V24.7744Z" fill="#F0BC5E"/>
<path d="M46.4516 43.3549V21.6775H34.0645V13.9355H25.5484V15.4839H32.5161V37.1613H27.0968V29.4194H20.9032V37.1613H15.4839V15.4839H22.3813V13.9355H13.9355V21.6775H1.54839V43.3549H0V48.0001H48V43.3549H46.4516ZM44.9032 43.3549H43.3548V37.1613H38.7097V43.3549H37.1613V23.2259H44.9032V43.3549ZM41.8064 43.3549H40.2581V38.7097H41.8064V43.3549ZM12.3871 41.8065H35.6129V43.3549H12.3871V41.8065ZM35.6129 23.2259V40.2581H34.0645V23.2259H35.6129ZM22.4516 30.9678H25.5484V37.1613H22.4516V30.9678ZM32.5161 38.7097V40.2581H15.4839V38.7097H32.5161ZM13.9355 40.2581H12.3871V23.2259H13.9355V40.2581ZM3.09677 23.2259H10.8387V43.3549H9.29032V37.1613H4.64516V43.3549H3.09677V23.2259ZM7.74194 43.3549H6.19355V38.7097H7.74194V43.3549ZM46.4516 46.4517H1.54839V44.9033H46.4516V46.4517Z" fill="black"/>
<path d="M17.0323 20.1289H22.4516V21.6773H17.0323V20.1289Z" fill="black"/>
<path d="M25.5484 20.1289H30.9677V21.6773H25.5484V20.1289Z" fill="black"/>
<path d="M17.0323 23.2256H22.4516V24.774H17.0323V23.2256Z" fill="black"/>
<path d="M25.5484 23.2256H30.9677V24.774H25.5484V23.2256Z" fill="black"/>
<path d="M17.0323 26.3228H22.4516V27.8711H17.0323V26.3228Z" fill="black"/>
<path d="M25.5484 26.3228H30.9677V27.8711H25.5484V26.3228Z" fill="black"/>
<path d="M4.64516 24.7744H6.19355V26.3228H4.64516V24.7744Z" fill="black"/>
<path d="M7.74194 24.7744H9.29032V26.3228H7.74194V24.7744Z" fill="black"/>
<path d="M4.64516 27.8711H6.19355V29.4195H4.64516V27.8711Z" fill="black"/>
<path d="M7.74194 27.8711H9.29032V29.4195H7.74194V27.8711Z" fill="black"/>
<path d="M4.64516 30.9678H6.19355V32.5162H4.64516V30.9678Z" fill="black"/>
<path d="M7.74194 30.9678H9.29032V32.5162H7.74194V30.9678Z" fill="black"/>
<path d="M4.64516 34.0645H6.19355V35.6128H4.64516V34.0645Z" fill="black"/>
<path d="M7.74194 34.0645H9.29032V35.6128H7.74194V34.0645Z" fill="black"/>
<path d="M41.8065 24.7744H43.3548V26.3228H41.8065V24.7744Z" fill="black"/>
<path d="M38.7097 24.7744H40.2581V26.3228H38.7097V24.7744Z" fill="black"/>
<path d="M41.8065 27.8711H43.3548V29.4195H41.8065V27.8711Z" fill="black"/>
<path d="M38.7097 27.8711H40.2581V29.4195H38.7097V27.8711Z" fill="black"/>
<path d="M41.8065 30.9678H43.3548V32.5162H41.8065V30.9678Z" fill="black"/>
<path d="M38.7097 30.9678H40.2581V32.5162H38.7097V30.9678Z" fill="black"/>
<path d="M41.8065 34.0645H43.3548V35.6128H41.8065V34.0645Z" fill="black"/>
<path d="M38.7097 34.0645H40.2581V35.6128H38.7097V34.0645Z" fill="black"/>
<path d="M24 17.0323C23.239 17.0323 22.5397 16.6172 22.176 15.9492L18.5629 9.32586C18.068 8.4186 17.8064 7.39264 17.8064 6.35988V6.19355C17.8064 2.77848 20.5849 0 24 0C27.4151 0 30.1935 2.77848 30.1935 6.19355V6.35988C30.1935 7.39264 29.932 8.4186 29.4371 9.32586L25.824 15.9492C25.4603 16.6172 24.761 17.0323 24 17.0323Z" fill="#F0BC5E"/>
<path d="M24 9.29023C22.2921 9.29023 20.9032 7.90137 20.9032 6.19345C20.9032 4.48554 22.2921 3.09668 24 3.09668C25.7079 3.09668 27.0968 4.48554 27.0968 6.19345C27.0968 7.90137 25.7079 9.29023 24 9.29023ZM24 4.64507C23.146 4.64507 22.4516 5.3395 22.4516 6.19345C22.4516 7.04741 23.146 7.74184 24 7.74184C24.854 7.74184 25.5484 7.04741 25.5484 6.19345C25.5484 5.3395 24.854 4.64507 24 4.64507Z" fill="black"/>
</svg>
