<svg width="64" height="64" viewBox="0 0 64 64" fill="none" xmlns="http://www.w3.org/2000/svg">
    <path d="M32 62.8148C49.0181 62.8148 62.8148 49.0181 62.8148 32C62.8148 14.9819 49.0181 1.18518 32 1.18518C14.9819 1.18518 1.18519 14.9819 1.18519 32C1.18519 49.0181 14.9819 62.8148 32 62.8148Z"
          fill="#FFC82F"/>
    <path d="M32 64C49.645 64 64 49.645 64 32C64 14.355 49.645 0 32 0C14.355 0 -4.76837e-07 14.355 -4.76837e-07 32C-4.76837e-07 49.645 14.355 64 32 64ZM32 2.37037C48.3378 2.37037 61.6296 15.6622 61.6296 32C61.6296 48.3378 48.3378 61.6296 32 61.6296C15.6622 61.6296 2.37037 48.3378 2.37037 32C2.37037 15.6622 15.6622 2.37037 32 2.37037Z"
          fill="#FFC82F"/>
    <path d="M37.5775 47.4074C37.8809 47.4074 38.1843 47.2913 38.4154 47.0601C38.8788 46.5967 38.8788 45.8477 38.4154 45.3843L25.0311 32L38.4154 18.6157C38.8788 18.1523 38.8788 17.4032 38.4154 16.9398C37.952 16.4764 37.2029 16.4764 36.7395 16.9398L23.1123 30.5671C22.3217 31.3576 22.3217 32.6424 23.1123 33.4329L36.7395 47.0601C36.9706 47.2913 37.274 47.4074 37.5775 47.4074Z"
          fill="white"/>
</svg>
