<svg width="48" height="48" viewBox="0 0 48 48" fill="none" xmlns="http://www.w3.org/2000/svg">
<g clip-path="url(#clip0)">
<path d="M12.3871 40.2583H20.129V44.9035H12.3871V40.2583Z" fill="#F0BC5E"/>
<path d="M27.5754 12.5917L24 11.681L20.4247 12.5917L20.1446 8.75246L18.2454 5.50939L21.6045 4.05362L24 1.0918L26.3963 4.05286L29.7554 5.50863L27.8562 8.7517L27.5754 12.5917Z" fill="#F0BC5E"/>
<path d="M8.33506 16.4626L6.19356 15.9183L4.05205 16.4626L3.88647 14.1718L2.76147 12.2511L4.75442 11.3876L6.19356 9.60791L7.63269 11.3869L9.62564 12.2503L8.50064 14.171L8.33506 16.4626Z" fill="#F0BC5E"/>
<path d="M43.9479 16.4626L41.8064 15.9183L39.6649 16.4626L39.4986 14.1718L38.3736 12.2511L40.3665 11.3876L41.8064 9.60791L43.2456 11.3869L45.2385 12.2503L44.1135 14.171L43.9479 16.4626Z" fill="#F0BC5E"/>
<path d="M16.5926 25.8504L13.5261 22.0188C12.4196 20.6345 11.1105 19.4346 9.63549 18.4514L9.06732 18.073L11.3366 13.5352L12.0775 14.0905C14.2126 15.6907 15.6272 18.1285 15.9583 20.777L16.5926 25.8504Z" fill="#F0BC5E"/>
<path d="M31.4074 25.8505L32.0417 20.777C32.3729 18.1286 33.7874 15.6915 35.9225 14.0905L36.6642 13.5337L38.9335 18.0711L38.3653 18.4499C36.8903 19.4339 35.5804 20.633 34.4747 22.0166L31.4074 25.8505Z" fill="#F0BC5E"/>
<path d="M38.414 27.8711H9.58591L6.48914 34.0646H9.2903V48.0001H38.7097V34.0646H41.5108L38.414 27.8711ZM37.4569 29.4195L39.0053 32.5163H26.8011L25.2528 29.4195H37.4569ZM10.5431 29.4195H22.7472L21.1988 32.5163H8.99468L10.5431 29.4195ZM37.1613 46.4517H24.7742V41.0324H23.2258V46.4517H10.8387V34.0646H22.156L23.2258 31.9246V38.7098H24.7742V31.9246L25.844 34.0646H37.1613V46.4517Z" fill="black"/>
<path d="M12.3871 40.2578H17.0322V41.8062H12.3871V40.2578Z" fill="black"/>
<path d="M12.3871 43.355H17.0322V44.9034H12.3871V43.355Z" fill="black"/>
<path d="M18.5806 43.355H20.129V44.9034H18.5806V43.355Z" fill="black"/>
<path d="M28.6452 23.0788C28.6452 19.3602 29.9558 15.7403 32.3374 12.8828L31.1473 11.8916C28.5352 15.0266 27.0968 18.9996 27.0968 23.0788V26.3227H28.6452V23.0788Z" fill="black"/>
<path d="M32.5161 9.29053H34.0645V10.8389H32.5161V9.29053Z" fill="black"/>
<path d="M34.8387 6.19336H36.3871V7.74175H34.8387V6.19336Z" fill="black"/>
<path d="M19.3549 26.3227H20.9032V23.0788C20.9032 18.9988 19.4649 15.0266 16.8535 11.8916L15.6635 12.8828C18.0442 15.7403 19.3549 19.3602 19.3549 23.0788V26.3227Z" fill="black"/>
<path d="M13.9355 9.29053H15.4839V10.8389H13.9355V9.29053Z" fill="black"/>
<path d="M11.6129 6.19336H13.1613V7.74175H11.6129V6.19336Z" fill="black"/>
<path d="M23.2258 13.1611H24.7742V14.7095H23.2258V13.1611Z" fill="black"/>
<path d="M23.2258 16.2583H24.7742V26.3228H23.2258V16.2583Z" fill="black"/>
<path d="M44.9032 20.9033H46.4516V22.4517H44.9032V20.9033Z" fill="black"/>
<path d="M44.9032 24H46.4516V25.5484H44.9032V24Z" fill="black"/>
<path d="M46.4516 22.4517H48V24H46.4516V22.4517Z" fill="black"/>
<path d="M43.3549 22.4517H44.9032V24H43.3549V22.4517Z" fill="black"/>
<path d="M42.5806 0H44.129V1.54839H42.5806V0Z" fill="black"/>
<path d="M42.5806 3.09668H44.129V4.64507H42.5806V3.09668Z" fill="black"/>
<path d="M44.129 1.54834H45.6774V3.09673H44.129V1.54834Z" fill="black"/>
<path d="M41.0323 1.54834H42.5807V3.09673H41.0323V1.54834Z" fill="black"/>
<path d="M1.5484 24H3.09679V25.5484H1.5484V24Z" fill="black"/>
<path d="M1.5484 27.0967H3.09679V28.6451H1.5484V27.0967Z" fill="black"/>
<path d="M3.0968 25.5483H4.64519V27.0967H3.0968V25.5483Z" fill="black"/>
<path d="M0 25.5483H1.54839V27.0967H0V25.5483Z" fill="black"/>
<path d="M1.5484 0H3.09679V1.54839H1.5484V0Z" fill="black"/>
<path d="M1.5484 3.09668H3.09679V4.64507H1.5484V3.09668Z" fill="black"/>
<path d="M3.0968 1.54834H4.64519V3.09673H3.0968V1.54834Z" fill="black"/>
<path d="M0 1.54834H1.54839V3.09673H0V1.54834Z" fill="black"/>
</g>
<defs>
<clipPath id="clip0">
<rect width="48" height="48" fill="white"/>
</clipPath>
</defs>
</svg>
