<svg width="64" height="64" viewBox="0 0 64 64" fill="none" xmlns="http://www.w3.org/2000/svg">
    <path d="M32 62.8148C14.9819 62.8148 1.18518 49.0181 1.18518 32C1.18518 14.9819 14.9819 1.18518 32 1.18518C49.0181 1.18518 62.8148 14.9819 62.8148 32C62.8148 49.0181 49.0181 62.8148 32 62.8148Z"
          fill="#FFC82F"/>
    <path d="M32 64C14.355 64 0 49.645 0 32C0 14.355 14.355 0 32 0C49.645 0 64 14.355 64 32C64 49.645 49.645 64 32 64ZM32 2.37037C15.6622 2.37037 2.37037 15.6622 2.37037 32C2.37037 48.3378 15.6622 61.6296 32 61.6296C48.3378 61.6296 61.6296 48.3378 61.6296 32C61.6296 15.6622 48.3378 2.37037 32 2.37037Z"
          fill="#FFC82F"/>
    <path d="M26.4225 47.4074C26.1191 47.4074 25.8157 47.2913 25.5846 47.0601C25.1212 46.5967 25.1212 45.8477 25.5846 45.3843L38.9689 32L25.5846 18.6157C25.1212 18.1523 25.1212 17.4032 25.5846 16.9398C26.048 16.4764 26.7971 16.4764 27.2605 16.9398L40.8877 30.5671C41.6783 31.3576 41.6783 32.6424 40.8877 33.4329L27.2605 47.0601C27.0294 47.2913 26.726 47.4074 26.4225 47.4074Z"
          fill="white"/>
</svg>
